<?xml version="1.0" encoding="utf-8" standalone="no"?>
<!DOCTYPE svg PUBLIC "-//W3C//DTD SVG 1.1//EN"
  "http://www.w3.org/Graphics/SVG/1.1/DTD/svg11.dtd">
<svg xmlns:xlink="http://www.w3.org/1999/xlink" width="720pt" height="288pt" viewBox="0 0 720 288" xmlns="http://www.w3.org/2000/svg" version="1.1">
 <metadata>
  <rdf:RDF xmlns:dc="http://purl.org/dc/elements/1.1/" xmlns:cc="http://creativecommons.org/ns#" xmlns:rdf="http://www.w3.org/1999/02/22-rdf-syntax-ns#">
   <cc:Work>
    <dc:type rdf:resource="http://purl.org/dc/dcmitype/StillImage"/>
    <dc:date>2025-01-09T14:12:18.037173</dc:date>
    <dc:format>image/svg+xml</dc:format>
    <dc:creator>
     <cc:Agent>
      <dc:title>Matplotlib v3.9.0, https://matplotlib.org/</dc:title>
     </cc:Agent>
    </dc:creator>
   </cc:Work>
  </rdf:RDF>
 </metadata>
 <defs>
  <style type="text/css">*{stroke-linejoin: round; stroke-linecap: butt}</style>
 </defs>
 <g id="figure_1">
  <g id="patch_1">
   <path d="M 0 288 
L 720 288 
L 720 0 
L 0 0 
z
" style="fill: #ffffff"/>
  </g>
  <g id="axes_1">
   <g id="patch_2">
    <path d="M 51.86 235.96 
L 327.2525 235.96 
L 327.2525 12.96 
L 51.86 12.96 
z
" style="fill: #ffffff"/>
   </g>
   <g id="patch_3">
    <path d="M 55.259907 235.96 
L 60.699759 235.96 
L 60.699759 235.96 
L 55.259907 235.96 
z
" clip-path="url(#pea77b1288b)" style="fill: #66cdaa; stroke: #20b2aa; stroke-width: 2; stroke-linejoin: miter"/>
   </g>
   <g id="patch_4">
    <path d="M 60.699759 235.96 
L 66.139611 235.96 
L 66.139611 235.96 
L 60.699759 235.96 
z
" clip-path="url(#pea77b1288b)" style="fill: #66cdaa; stroke: #20b2aa; stroke-width: 2; stroke-linejoin: miter"/>
   </g>
   <g id="patch_5">
    <path d="M 66.139611 235.96 
L 71.579463 235.96 
L 71.579463 235.96 
L 66.139611 235.96 
z
" clip-path="url(#pea77b1288b)" style="fill: #66cdaa; stroke: #20b2aa; stroke-width: 2; stroke-linejoin: miter"/>
   </g>
   <g id="patch_6">
    <path d="M 71.579463 235.96 
L 77.019314 235.96 
L 77.019314 235.96 
L 71.579463 235.96 
z
" clip-path="url(#pea77b1288b)" style="fill: #66cdaa; stroke: #20b2aa; stroke-width: 2; stroke-linejoin: miter"/>
   </g>
   <g id="patch_7">
    <path d="M 77.019314 235.96 
L 82.459167 235.96 
L 82.459167 235.96 
L 77.019314 235.96 
z
" clip-path="url(#pea77b1288b)" style="fill: #66cdaa; stroke: #20b2aa; stroke-width: 2; stroke-linejoin: miter"/>
   </g>
   <g id="patch_8">
    <path d="M 82.459167 235.96 
L 87.899018 235.96 
L 87.899018 235.96 
L 82.459167 235.96 
z
" clip-path="url(#pea77b1288b)" style="fill: #66cdaa; stroke: #20b2aa; stroke-width: 2; stroke-linejoin: miter"/>
   </g>
   <g id="patch_9">
    <path d="M 87.899018 235.96 
L 93.338871 235.96 
L 93.338871 235.96 
L 87.899018 235.96 
z
" clip-path="url(#pea77b1288b)" style="fill: #66cdaa; stroke: #20b2aa; stroke-width: 2; stroke-linejoin: miter"/>
   </g>
   <g id="patch_10">
    <path d="M 93.338871 235.96 
L 98.778721 235.96 
L 98.778721 235.96 
L 93.338871 235.96 
z
" clip-path="url(#pea77b1288b)" style="fill: #66cdaa; stroke: #20b2aa; stroke-width: 2; stroke-linejoin: miter"/>
   </g>
   <g id="patch_11">
    <path d="M 98.778721 235.96 
L 104.218576 235.96 
L 104.218576 235.96 
L 98.778721 235.96 
z
" clip-path="url(#pea77b1288b)" style="fill: #66cdaa; stroke: #20b2aa; stroke-width: 2; stroke-linejoin: miter"/>
   </g>
   <g id="patch_12">
    <path d="M 104.218576 235.96 
L 109.658427 235.96 
L 109.658427 235.96 
L 104.218576 235.96 
z
" clip-path="url(#pea77b1288b)" style="fill: #66cdaa; stroke: #20b2aa; stroke-width: 2; stroke-linejoin: miter"/>
   </g>
   <g id="patch_13">
    <path d="M 109.658427 235.96 
L 115.098277 235.96 
L 115.098277 235.515689 
L 109.658427 235.515689 
z
" clip-path="url(#pea77b1288b)" style="fill: #66cdaa; stroke: #20b2aa; stroke-width: 2; stroke-linejoin: miter"/>
   </g>
   <g id="patch_14">
    <path d="M 115.098277 235.96 
L 120.538128 235.96 
L 120.538128 231.368783 
L 115.098277 231.368783 
z
" clip-path="url(#pea77b1288b)" style="fill: #66cdaa; stroke: #20b2aa; stroke-width: 2; stroke-linejoin: miter"/>
   </g>
   <g id="patch_15">
    <path d="M 120.538128 235.96 
L 125.977979 235.96 
L 125.977979 218.779964 
L 120.538128 218.779964 
z
" clip-path="url(#pea77b1288b)" style="fill: #66cdaa; stroke: #20b2aa; stroke-width: 2; stroke-linejoin: miter"/>
   </g>
   <g id="patch_16">
    <path d="M 125.977979 235.96 
L 131.417834 235.96 
L 131.417834 154.058681 
L 125.977979 154.058681 
z
" clip-path="url(#pea77b1288b)" style="fill: #66cdaa; stroke: #20b2aa; stroke-width: 2; stroke-linejoin: miter"/>
   </g>
   <g id="patch_17">
    <path d="M 131.417834 235.96 
L 136.857688 235.96 
L 136.857688 46.831637 
L 131.417834 46.831637 
z
" clip-path="url(#pea77b1288b)" style="fill: #66cdaa; stroke: #20b2aa; stroke-width: 2; stroke-linejoin: miter"/>
   </g>
   <g id="patch_18">
    <path d="M 136.857688 235.96 
L 142.297535 235.96 
L 142.297535 23.579048 
L 136.857688 23.579048 
z
" clip-path="url(#pea77b1288b)" style="fill: #66cdaa; stroke: #20b2aa; stroke-width: 2; stroke-linejoin: miter"/>
   </g>
   <g id="patch_19">
    <path d="M 142.297535 235.96 
L 147.73739 235.96 
L 147.73739 33.94662 
L 142.297535 33.94662 
z
" clip-path="url(#pea77b1288b)" style="fill: #66cdaa; stroke: #20b2aa; stroke-width: 2; stroke-linejoin: miter"/>
   </g>
   <g id="patch_20">
    <path d="M 147.73739 235.96 
L 153.177245 235.96 
L 153.177245 33.354205 
L 147.73739 33.354205 
z
" clip-path="url(#pea77b1288b)" style="fill: #66cdaa; stroke: #20b2aa; stroke-width: 2; stroke-linejoin: miter"/>
   </g>
   <g id="patch_21">
    <path d="M 153.177245 235.96 
L 158.617091 235.96 
L 158.617091 49.941537 
L 153.177245 49.941537 
z
" clip-path="url(#pea77b1288b)" style="fill: #66cdaa; stroke: #20b2aa; stroke-width: 2; stroke-linejoin: miter"/>
   </g>
   <g id="patch_22">
    <path d="M 158.617091 235.96 
L 164.056946 235.96 
L 164.056946 73.786502 
L 158.617091 73.786502 
z
" clip-path="url(#pea77b1288b)" style="fill: #66cdaa; stroke: #20b2aa; stroke-width: 2; stroke-linejoin: miter"/>
   </g>
   <g id="patch_23">
    <path d="M 164.056946 235.96 
L 169.496793 235.96 
L 169.496793 100.593061 
L 164.056946 100.593061 
z
" clip-path="url(#pea77b1288b)" style="fill: #66cdaa; stroke: #20b2aa; stroke-width: 2; stroke-linejoin: miter"/>
   </g>
   <g id="patch_24">
    <path d="M 169.496793 235.96 
L 174.936647 235.96 
L 174.936647 135.841932 
L 169.496793 135.841932 
z
" clip-path="url(#pea77b1288b)" style="fill: #66cdaa; stroke: #20b2aa; stroke-width: 2; stroke-linejoin: miter"/>
   </g>
   <g id="patch_25">
    <path d="M 174.936647 235.96 
L 180.376502 235.96 
L 180.376502 155.095406 
L 174.936647 155.095406 
z
" clip-path="url(#pea77b1288b)" style="fill: #66cdaa; stroke: #20b2aa; stroke-width: 2; stroke-linejoin: miter"/>
   </g>
   <g id="patch_26">
    <path d="M 180.376502 235.96 
L 185.816349 235.96 
L 185.816349 169.461361 
L 180.376502 169.461361 
z
" clip-path="url(#pea77b1288b)" style="fill: #66cdaa; stroke: #20b2aa; stroke-width: 2; stroke-linejoin: miter"/>
   </g>
   <g id="patch_27">
    <path d="M 185.816349 235.96 
L 191.256204 235.96 
L 191.256204 184.86424 
L 185.816349 184.86424 
z
" clip-path="url(#pea77b1288b)" style="fill: #66cdaa; stroke: #20b2aa; stroke-width: 2; stroke-linejoin: miter"/>
   </g>
   <g id="patch_28">
    <path d="M 191.256204 235.96 
L 196.69605 235.96 
L 196.69605 198.637824 
L 191.256204 198.637824 
z
" clip-path="url(#pea77b1288b)" style="fill: #66cdaa; stroke: #20b2aa; stroke-width: 2; stroke-linejoin: miter"/>
   </g>
   <g id="patch_29">
    <path d="M 196.69605 235.96 
L 202.135913 235.96 
L 202.135913 203.969659 
L 196.69605 203.969659 
z
" clip-path="url(#pea77b1288b)" style="fill: #66cdaa; stroke: #20b2aa; stroke-width: 2; stroke-linejoin: miter"/>
   </g>
   <g id="patch_30">
    <path d="M 202.135913 235.96 
L 207.57576 235.96 
L 207.57576 210.189926 
L 202.135913 210.189926 
z
" clip-path="url(#pea77b1288b)" style="fill: #66cdaa; stroke: #20b2aa; stroke-width: 2; stroke-linejoin: miter"/>
   </g>
   <g id="patch_31">
    <path d="M 207.57576 235.96 
L 213.015607 235.96 
L 213.015607 215.66977 
L 207.57576 215.66977 
z
" clip-path="url(#pea77b1288b)" style="fill: #66cdaa; stroke: #20b2aa; stroke-width: 2; stroke-linejoin: miter"/>
   </g>
   <g id="patch_32">
    <path d="M 213.015607 235.96 
L 218.455469 235.96 
L 218.455469 222.926898 
L 213.015607 222.926898 
z
" clip-path="url(#pea77b1288b)" style="fill: #66cdaa; stroke: #20b2aa; stroke-width: 2; stroke-linejoin: miter"/>
   </g>
   <g id="patch_33">
    <path d="M 218.455469 235.96 
L 223.895316 235.96 
L 223.895316 222.630652 
L 218.455469 222.630652 
z
" clip-path="url(#pea77b1288b)" style="fill: #66cdaa; stroke: #20b2aa; stroke-width: 2; stroke-linejoin: miter"/>
   </g>
   <g id="patch_34">
    <path d="M 223.895316 235.96 
L 229.335163 235.96 
L 229.335163 227.073768 
L 223.895316 227.073768 
z
" clip-path="url(#pea77b1288b)" style="fill: #66cdaa; stroke: #20b2aa; stroke-width: 2; stroke-linejoin: miter"/>
   </g>
   <g id="patch_35">
    <path d="M 229.335163 235.96 
L 234.775026 235.96 
L 234.775026 230.628276 
L 229.335163 230.628276 
z
" clip-path="url(#pea77b1288b)" style="fill: #66cdaa; stroke: #20b2aa; stroke-width: 2; stroke-linejoin: miter"/>
   </g>
   <g id="patch_36">
    <path d="M 234.775026 235.96 
L 240.214872 235.96 
L 240.214872 229.887741 
L 234.775026 229.887741 
z
" clip-path="url(#pea77b1288b)" style="fill: #66cdaa; stroke: #20b2aa; stroke-width: 2; stroke-linejoin: miter"/>
   </g>
   <g id="patch_37">
    <path d="M 240.214872 235.96 
L 245.654719 235.96 
L 245.654719 229.739637 
L 240.214872 229.739637 
z
" clip-path="url(#pea77b1288b)" style="fill: #66cdaa; stroke: #20b2aa; stroke-width: 2; stroke-linejoin: miter"/>
   </g>
   <g id="patch_38">
    <path d="M 245.654719 235.96 
L 251.094582 235.96 
L 251.094582 232.109311 
L 245.654719 232.109311 
z
" clip-path="url(#pea77b1288b)" style="fill: #66cdaa; stroke: #20b2aa; stroke-width: 2; stroke-linejoin: miter"/>
   </g>
   <g id="patch_39">
    <path d="M 251.094582 235.96 
L 256.534429 235.96 
L 256.534429 232.849819 
L 251.094582 232.849819 
z
" clip-path="url(#pea77b1288b)" style="fill: #66cdaa; stroke: #20b2aa; stroke-width: 2; stroke-linejoin: miter"/>
   </g>
   <g id="patch_40">
    <path d="M 256.534429 235.96 
L 261.974275 235.96 
L 261.974275 233.29413 
L 256.534429 233.29413 
z
" clip-path="url(#pea77b1288b)" style="fill: #66cdaa; stroke: #20b2aa; stroke-width: 2; stroke-linejoin: miter"/>
   </g>
   <g id="patch_41">
    <path d="M 261.974275 235.96 
L 267.414122 235.96 
L 267.414122 234.03465 
L 261.974275 234.03465 
z
" clip-path="url(#pea77b1288b)" style="fill: #66cdaa; stroke: #20b2aa; stroke-width: 2; stroke-linejoin: miter"/>
   </g>
   <g id="patch_42">
    <path d="M 267.414122 235.96 
L 272.853985 235.96 
L 272.853985 234.478966 
L 267.414122 234.478966 
z
" clip-path="url(#pea77b1288b)" style="fill: #66cdaa; stroke: #20b2aa; stroke-width: 2; stroke-linejoin: miter"/>
   </g>
   <g id="patch_43">
    <path d="M 272.853985 235.96 
L 278.293831 235.96 
L 278.293831 234.923273 
L 272.853985 234.923273 
z
" clip-path="url(#pea77b1288b)" style="fill: #66cdaa; stroke: #20b2aa; stroke-width: 2; stroke-linejoin: miter"/>
   </g>
   <g id="patch_44">
    <path d="M 278.293831 235.96 
L 283.733678 235.96 
L 283.733678 234.775169 
L 278.293831 234.775169 
z
" clip-path="url(#pea77b1288b)" style="fill: #66cdaa; stroke: #20b2aa; stroke-width: 2; stroke-linejoin: miter"/>
   </g>
   <g id="patch_45">
    <path d="M 283.733678 235.96 
L 289.173541 235.96 
L 289.173541 235.071379 
L 283.733678 235.071379 
z
" clip-path="url(#pea77b1288b)" style="fill: #66cdaa; stroke: #20b2aa; stroke-width: 2; stroke-linejoin: miter"/>
   </g>
   <g id="patch_46">
    <path d="M 289.173541 235.96 
L 294.613388 235.96 
L 294.613388 235.515688 
L 289.173541 235.515688 
z
" clip-path="url(#pea77b1288b)" style="fill: #66cdaa; stroke: #20b2aa; stroke-width: 2; stroke-linejoin: miter"/>
   </g>
   <g id="patch_47">
    <path d="M 294.613388 235.96 
L 300.053234 235.96 
L 300.053234 235.515688 
L 294.613388 235.515688 
z
" clip-path="url(#pea77b1288b)" style="fill: #66cdaa; stroke: #20b2aa; stroke-width: 2; stroke-linejoin: miter"/>
   </g>
   <g id="patch_48">
    <path d="M 300.053234 235.96 
L 305.493097 235.96 
L 305.493097 235.663793 
L 300.053234 235.663793 
z
" clip-path="url(#pea77b1288b)" style="fill: #66cdaa; stroke: #20b2aa; stroke-width: 2; stroke-linejoin: miter"/>
   </g>
   <g id="patch_49">
    <path d="M 305.493097 235.96 
L 310.932944 235.96 
L 310.932944 235.515688 
L 305.493097 235.515688 
z
" clip-path="url(#pea77b1288b)" style="fill: #66cdaa; stroke: #20b2aa; stroke-width: 2; stroke-linejoin: miter"/>
   </g>
   <g id="patch_50">
    <path d="M 310.932944 235.96 
L 316.37279 235.96 
L 316.37279 235.811896 
L 310.932944 235.811896 
z
" clip-path="url(#pea77b1288b)" style="fill: #66cdaa; stroke: #20b2aa; stroke-width: 2; stroke-linejoin: miter"/>
   </g>
   <g id="patch_51">
    <path d="M 316.37279 235.96 
L 321.812653 235.96 
L 321.812653 235.96 
L 316.37279 235.96 
z
" clip-path="url(#pea77b1288b)" style="fill: #66cdaa; stroke: #20b2aa; stroke-width: 2; stroke-linejoin: miter"/>
   </g>
   <g id="patch_52">
    <path d="M 321.812653 235.96 
L 327.2525 235.96 
L 327.2525 235.96 
L 321.812653 235.96 
z
" clip-path="url(#pea77b1288b)" style="fill: #66cdaa; stroke: #20b2aa; stroke-width: 2; stroke-linejoin: miter"/>
   </g>
   <g id="matplotlib.axis_1">
    <g id="xtick_1">
     <g id="line2d_1">
      <defs>
       <path id="m5cc72a49f1" d="M 0 0 
L 0 3.5 
" style="stroke: #000000; stroke-width: 0.8"/>
      </defs>
      <g>
       <use xlink:href="#m5cc72a49f1" x="55.259907" y="235.96" style="stroke: #000000; stroke-width: 0.8"/>
      </g>
     </g>
     <g id="text_1">
      <!-- 0 -->
      <g transform="translate(52.259907 251.2925) scale(0.12 -0.12)">
       <defs>
        <path id="TimesNewRomanPSMT-30" d="M 231 2094 
Q 231 2819 450 3342 
Q 669 3866 1031 4122 
Q 1313 4325 1613 4325 
Q 2100 4325 2488 3828 
Q 2972 3213 2972 2159 
Q 2972 1422 2759 906 
Q 2547 391 2217 158 
Q 1888 -75 1581 -75 
Q 975 -75 572 641 
Q 231 1244 231 2094 
z
M 844 2016 
Q 844 1141 1059 588 
Q 1238 122 1591 122 
Q 1759 122 1940 273 
Q 2122 425 2216 781 
Q 2359 1319 2359 2297 
Q 2359 3022 2209 3506 
Q 2097 3866 1919 4016 
Q 1791 4119 1609 4119 
Q 1397 4119 1231 3928 
Q 1006 3669 925 3112 
Q 844 2556 844 2016 
z
" transform="scale(0.015625)"/>
       </defs>
       <use xlink:href="#TimesNewRomanPSMT-30"/>
      </g>
     </g>
    </g>
    <g id="xtick_2">
     <g id="line2d_2">
      <g>
       <use xlink:href="#m5cc72a49f1" x="123.258056" y="235.96" style="stroke: #000000; stroke-width: 0.8"/>
      </g>
     </g>
     <g id="text_2">
      <!-- 1 -->
      <g transform="translate(120.258056 251.2925) scale(0.12 -0.12)">
       <defs>
        <path id="TimesNewRomanPSMT-31" d="M 750 3822 
L 1781 4325 
L 1884 4325 
L 1884 747 
Q 1884 391 1914 303 
Q 1944 216 2037 169 
Q 2131 122 2419 116 
L 2419 0 
L 825 0 
L 825 116 
Q 1125 122 1212 167 
Q 1300 213 1334 289 
Q 1369 366 1369 747 
L 1369 3034 
Q 1369 3497 1338 3628 
Q 1316 3728 1258 3775 
Q 1200 3822 1119 3822 
Q 1003 3822 797 3725 
L 750 3822 
z
" transform="scale(0.015625)"/>
       </defs>
       <use xlink:href="#TimesNewRomanPSMT-31"/>
      </g>
     </g>
    </g>
    <g id="xtick_3">
     <g id="line2d_3">
      <g>
       <use xlink:href="#m5cc72a49f1" x="191.256204" y="235.96" style="stroke: #000000; stroke-width: 0.8"/>
      </g>
     </g>
     <g id="text_3">
      <!-- 2 -->
      <g transform="translate(188.256204 251.2925) scale(0.12 -0.12)">
       <defs>
        <path id="TimesNewRomanPSMT-32" d="M 2934 816 
L 2638 0 
L 138 0 
L 138 116 
Q 1241 1122 1691 1759 
Q 2141 2397 2141 2925 
Q 2141 3328 1894 3587 
Q 1647 3847 1303 3847 
Q 991 3847 742 3664 
Q 494 3481 375 3128 
L 259 3128 
Q 338 3706 661 4015 
Q 984 4325 1469 4325 
Q 1984 4325 2329 3994 
Q 2675 3663 2675 3213 
Q 2675 2891 2525 2569 
Q 2294 2063 1775 1497 
Q 997 647 803 472 
L 1909 472 
Q 2247 472 2383 497 
Q 2519 522 2628 598 
Q 2738 675 2819 816 
L 2934 816 
z
" transform="scale(0.015625)"/>
       </defs>
       <use xlink:href="#TimesNewRomanPSMT-32"/>
      </g>
     </g>
    </g>
    <g id="xtick_4">
     <g id="line2d_4">
      <g>
       <use xlink:href="#m5cc72a49f1" x="259.254352" y="235.96" style="stroke: #000000; stroke-width: 0.8"/>
      </g>
     </g>
     <g id="text_4">
      <!-- 3 -->
      <g transform="translate(256.254352 251.2925) scale(0.12 -0.12)">
       <defs>
        <path id="TimesNewRomanPSMT-33" d="M 325 3431 
Q 506 3859 782 4092 
Q 1059 4325 1472 4325 
Q 1981 4325 2253 3994 
Q 2459 3747 2459 3466 
Q 2459 3003 1878 2509 
Q 2269 2356 2469 2072 
Q 2669 1788 2669 1403 
Q 2669 853 2319 450 
Q 1863 -75 997 -75 
Q 569 -75 414 31 
Q 259 138 259 259 
Q 259 350 332 419 
Q 406 488 509 488 
Q 588 488 669 463 
Q 722 447 909 348 
Q 1097 250 1169 231 
Q 1284 197 1416 197 
Q 1734 197 1970 444 
Q 2206 691 2206 1028 
Q 2206 1275 2097 1509 
Q 2016 1684 1919 1775 
Q 1784 1900 1550 2001 
Q 1316 2103 1072 2103 
L 972 2103 
L 972 2197 
Q 1219 2228 1467 2375 
Q 1716 2522 1828 2728 
Q 1941 2934 1941 3181 
Q 1941 3503 1739 3701 
Q 1538 3900 1238 3900 
Q 753 3900 428 3381 
L 325 3431 
z
" transform="scale(0.015625)"/>
       </defs>
       <use xlink:href="#TimesNewRomanPSMT-33"/>
      </g>
     </g>
    </g>
    <g id="xtick_5">
     <g id="line2d_5">
      <g>
       <use xlink:href="#m5cc72a49f1" x="327.2525" y="235.96" style="stroke: #000000; stroke-width: 0.8"/>
      </g>
     </g>
     <g id="text_5">
      <!-- 4 -->
      <g transform="translate(324.2525 251.2925) scale(0.12 -0.12)">
       <defs>
        <path id="TimesNewRomanPSMT-34" d="M 2978 1563 
L 2978 1119 
L 2409 1119 
L 2409 0 
L 1894 0 
L 1894 1119 
L 100 1119 
L 100 1519 
L 2066 4325 
L 2409 4325 
L 2409 1563 
L 2978 1563 
z
M 1894 1563 
L 1894 3666 
L 406 1563 
L 1894 1563 
z
" transform="scale(0.015625)"/>
       </defs>
       <use xlink:href="#TimesNewRomanPSMT-34"/>
      </g>
     </g>
    </g>
    <g id="text_6">
     <!-- Height $h_{\text{c.m.}}$ [$\mu$m] -->
     <g transform="translate(139.22625 267.659375) scale(0.14 -0.14)">
      <defs>
       <path id="TimesNewRomanPSMT-48" d="M 1316 2272 
L 3284 2272 
L 3284 3484 
Q 3284 3809 3244 3913 
Q 3213 3991 3113 4047 
Q 2978 4122 2828 4122 
L 2678 4122 
L 2678 4238 
L 4491 4238 
L 4491 4122 
L 4341 4122 
Q 4191 4122 4056 4050 
Q 3956 4000 3920 3898 
Q 3884 3797 3884 3484 
L 3884 750 
Q 3884 428 3925 325 
Q 3956 247 4053 191 
Q 4191 116 4341 116 
L 4491 116 
L 4491 0 
L 2678 0 
L 2678 116 
L 2828 116 
Q 3088 116 3206 269 
Q 3284 369 3284 750 
L 3284 2041 
L 1316 2041 
L 1316 750 
Q 1316 428 1356 325 
Q 1388 247 1488 191 
Q 1622 116 1772 116 
L 1925 116 
L 1925 0 
L 109 0 
L 109 116 
L 259 116 
Q 522 116 641 269 
Q 716 369 716 750 
L 716 3484 
Q 716 3809 675 3913 
Q 644 3991 547 4047 
Q 409 4122 259 4122 
L 109 4122 
L 109 4238 
L 1925 4238 
L 1925 4122 
L 1772 4122 
Q 1622 4122 1488 4050 
Q 1391 4000 1353 3898 
Q 1316 3797 1316 3484 
L 1316 2272 
z
" transform="scale(0.015625)"/>
       <path id="TimesNewRomanPSMT-65" d="M 681 1784 
Q 678 1147 991 784 
Q 1303 422 1725 422 
Q 2006 422 2214 576 
Q 2422 731 2563 1106 
L 2659 1044 
Q 2594 616 2278 264 
Q 1963 -88 1488 -88 
Q 972 -88 605 314 
Q 238 716 238 1394 
Q 238 2128 614 2539 
Q 991 2950 1559 2950 
Q 2041 2950 2350 2633 
Q 2659 2316 2659 1784 
L 681 1784 
z
M 681 1966 
L 2006 1966 
Q 1991 2241 1941 2353 
Q 1863 2528 1708 2628 
Q 1553 2728 1384 2728 
Q 1125 2728 920 2526 
Q 716 2325 681 1966 
z
" transform="scale(0.015625)"/>
       <path id="TimesNewRomanPSMT-69" d="M 928 4444 
Q 1059 4444 1151 4351 
Q 1244 4259 1244 4128 
Q 1244 3997 1151 3903 
Q 1059 3809 928 3809 
Q 797 3809 703 3903 
Q 609 3997 609 4128 
Q 609 4259 701 4351 
Q 794 4444 928 4444 
z
M 1188 2947 
L 1188 647 
Q 1188 378 1227 289 
Q 1266 200 1342 156 
Q 1419 113 1622 113 
L 1622 0 
L 231 0 
L 231 113 
Q 441 113 512 153 
Q 584 194 626 287 
Q 669 381 669 647 
L 669 1750 
Q 669 2216 641 2353 
Q 619 2453 572 2492 
Q 525 2531 444 2531 
Q 356 2531 231 2484 
L 188 2597 
L 1050 2947 
L 1188 2947 
z
" transform="scale(0.015625)"/>
       <path id="TimesNewRomanPSMT-67" d="M 966 1044 
Q 703 1172 562 1401 
Q 422 1631 422 1909 
Q 422 2334 742 2640 
Q 1063 2947 1563 2947 
Q 1972 2947 2272 2747 
L 2878 2747 
Q 3013 2747 3034 2739 
Q 3056 2731 3066 2713 
Q 3084 2684 3084 2613 
Q 3084 2531 3069 2500 
Q 3059 2484 3036 2475 
Q 3013 2466 2878 2466 
L 2506 2466 
Q 2681 2241 2681 1891 
Q 2681 1491 2375 1206 
Q 2069 922 1553 922 
Q 1341 922 1119 984 
Q 981 866 932 777 
Q 884 688 884 625 
Q 884 572 936 522 
Q 988 472 1138 450 
Q 1225 438 1575 428 
Q 2219 413 2409 384 
Q 2700 344 2873 169 
Q 3047 -6 3047 -263 
Q 3047 -616 2716 -925 
Q 2228 -1381 1444 -1381 
Q 841 -1381 425 -1109 
Q 191 -953 191 -784 
Q 191 -709 225 -634 
Q 278 -519 444 -313 
Q 466 -284 763 25 
Q 600 122 533 198 
Q 466 275 466 372 
Q 466 481 555 628 
Q 644 775 966 1044 
z
M 1509 2797 
Q 1278 2797 1122 2612 
Q 966 2428 966 2047 
Q 966 1553 1178 1281 
Q 1341 1075 1591 1075 
Q 1828 1075 1981 1253 
Q 2134 1431 2134 1813 
Q 2134 2309 1919 2591 
Q 1759 2797 1509 2797 
z
M 934 0 
Q 788 -159 713 -296 
Q 638 -434 638 -550 
Q 638 -700 819 -813 
Q 1131 -1006 1722 -1006 
Q 2284 -1006 2551 -807 
Q 2819 -609 2819 -384 
Q 2819 -222 2659 -153 
Q 2497 -84 2016 -72 
Q 1313 -53 934 0 
z
" transform="scale(0.015625)"/>
       <path id="TimesNewRomanPSMT-68" d="M 1041 4444 
L 1041 2350 
Q 1388 2731 1591 2839 
Q 1794 2947 1997 2947 
Q 2241 2947 2416 2812 
Q 2591 2678 2675 2391 
Q 2734 2191 2734 1659 
L 2734 647 
Q 2734 375 2778 275 
Q 2809 200 2884 156 
Q 2959 113 3159 113 
L 3159 0 
L 1753 0 
L 1753 113 
L 1819 113 
Q 2019 113 2097 173 
Q 2175 234 2206 353 
Q 2216 403 2216 647 
L 2216 1659 
Q 2216 2128 2167 2275 
Q 2119 2422 2012 2495 
Q 1906 2569 1756 2569 
Q 1603 2569 1437 2487 
Q 1272 2406 1041 2159 
L 1041 647 
Q 1041 353 1073 281 
Q 1106 209 1195 161 
Q 1284 113 1503 113 
L 1503 0 
L 84 0 
L 84 113 
Q 275 113 384 172 
Q 447 203 484 290 
Q 522 378 522 647 
L 522 3238 
Q 522 3728 498 3840 
Q 475 3953 426 3993 
Q 378 4034 297 4034 
Q 231 4034 84 3984 
L 41 4094 
L 897 4444 
L 1041 4444 
z
" transform="scale(0.015625)"/>
       <path id="TimesNewRomanPSMT-74" d="M 1031 3803 
L 1031 2863 
L 1700 2863 
L 1700 2644 
L 1031 2644 
L 1031 788 
Q 1031 509 1111 412 
Q 1191 316 1316 316 
Q 1419 316 1516 380 
Q 1613 444 1666 569 
L 1788 569 
Q 1678 263 1478 108 
Q 1278 -47 1066 -47 
Q 922 -47 784 33 
Q 647 113 581 261 
Q 516 409 516 719 
L 516 2644 
L 63 2644 
L 63 2747 
Q 234 2816 414 2980 
Q 594 3144 734 3369 
Q 806 3488 934 3803 
L 1031 3803 
z
" transform="scale(0.015625)"/>
       <path id="TimesNewRomanPSMT-20" transform="scale(0.015625)"/>
       <path id="Cmmi10-68" d="M 341 116 
Q 341 153 347 172 
L 1275 3872 
Q 1300 3981 1306 4044 
Q 1306 4147 891 4147 
Q 825 4147 825 4231 
Q 828 4247 839 4287 
Q 850 4328 867 4350 
Q 884 4372 916 4372 
L 1778 4441 
L 1797 4441 
Q 1797 4434 1819 4423 
Q 1841 4413 1844 4409 
Q 1856 4378 1856 4359 
L 1356 2363 
Q 1750 2828 2291 2828 
Q 2516 2828 2680 2750 
Q 2844 2672 2936 2514 
Q 3028 2356 3028 2138 
Q 3028 1875 2911 1503 
Q 2794 1131 2619 672 
Q 2528 463 2528 288 
Q 2528 97 2675 97 
Q 2925 97 3092 364 
Q 3259 631 3328 941 
Q 3341 978 3378 978 
L 3456 978 
Q 3481 978 3497 961 
Q 3513 944 3513 922 
Q 3513 916 3506 903 
Q 3450 672 3339 448 
Q 3228 225 3059 76 
Q 2891 -72 2663 -72 
Q 2438 -72 2278 83 
Q 2119 238 2119 459 
Q 2119 578 2169 709 
Q 2350 1191 2470 1569 
Q 2591 1947 2591 2234 
Q 2591 2419 2519 2541 
Q 2447 2663 2278 2663 
Q 1934 2663 1678 2452 
Q 1422 2241 1234 1894 
L 800 147 
Q 775 50 703 -11 
Q 631 -72 538 -72 
Q 456 -72 398 -17 
Q 341 38 341 116 
z
" transform="scale(0.015625)"/>
       <path id="Cmr10-63" d="M 1594 -72 
Q 1206 -72 890 129 
Q 575 331 394 667 
Q 213 1003 213 1381 
Q 213 1759 392 2106 
Q 572 2453 889 2661 
Q 1206 2869 1594 2869 
Q 1969 2869 2276 2722 
Q 2584 2575 2584 2241 
Q 2584 2116 2495 2023 
Q 2406 1931 2278 1931 
Q 2150 1931 2061 2023 
Q 1972 2116 1972 2241 
Q 1972 2353 2044 2436 
Q 2116 2519 2222 2541 
Q 2000 2681 1600 2681 
Q 1294 2681 1106 2478 
Q 919 2275 844 1975 
Q 769 1675 769 1381 
Q 769 1072 861 783 
Q 953 494 1158 305 
Q 1363 116 1672 116 
Q 1975 116 2187 302 
Q 2400 488 2478 788 
Q 2478 825 2528 825 
L 2606 825 
Q 2625 825 2640 808 
Q 2656 791 2656 769 
L 2656 750 
Q 2559 372 2271 150 
Q 1984 -72 1594 -72 
z
" transform="scale(0.015625)"/>
       <path id="Cmmi10-3a" d="M 538 353 
Q 538 497 644 600 
Q 750 703 891 703 
Q 978 703 1062 656 
Q 1147 609 1194 525 
Q 1241 441 1241 353 
Q 1241 213 1137 106 
Q 1034 0 891 0 
Q 750 0 644 106 
Q 538 213 538 353 
z
" transform="scale(0.015625)"/>
       <path id="Cmr10-6d" d="M 191 0 
L 191 225 
Q 409 225 550 259 
Q 691 294 691 428 
L 691 2175 
Q 691 2347 639 2423 
Q 588 2500 491 2517 
Q 394 2534 191 2534 
L 191 2759 
L 1119 2828 
L 1119 2203 
Q 1247 2478 1498 2653 
Q 1750 2828 2047 2828 
Q 2784 2828 2913 2228 
Q 3041 2497 3287 2662 
Q 3534 2828 3828 2828 
Q 4119 2828 4317 2734 
Q 4516 2641 4616 2448 
Q 4716 2256 4716 1966 
L 4716 428 
Q 4716 294 4858 259 
Q 5000 225 5216 225 
L 5216 0 
L 3750 0 
L 3750 225 
Q 3969 225 4109 259 
Q 4250 294 4250 428 
L 4250 1947 
Q 4250 2269 4159 2466 
Q 4069 2663 3788 2663 
Q 3419 2663 3178 2366 
Q 2938 2069 2938 1691 
L 2938 428 
Q 2938 294 3078 259 
Q 3219 225 3438 225 
L 3438 0 
L 1972 0 
L 1972 225 
Q 2191 225 2331 259 
Q 2472 294 2472 428 
L 2472 1947 
Q 2472 2259 2381 2461 
Q 2291 2663 2009 2663 
Q 1638 2663 1398 2366 
Q 1159 2069 1159 1691 
L 1159 428 
Q 1159 294 1300 259 
Q 1441 225 1656 225 
L 1656 0 
L 191 0 
z
" transform="scale(0.015625)"/>
       <path id="TimesNewRomanPSMT-5b" d="M 1900 -1269 
L 525 -1269 
L 525 4334 
L 1900 4334 
L 1900 4088 
L 994 4088 
L 994 -1025 
L 1900 -1025 
L 1900 -1269 
z
" transform="scale(0.015625)"/>
       <path id="Cmmi10-b9" d="M 178 -1203 
Q 178 -1166 184 -1153 
L 1125 2625 
Q 1153 2716 1226 2772 
Q 1300 2828 1394 2828 
Q 1475 2828 1531 2779 
Q 1588 2731 1588 2650 
Q 1588 2631 1586 2620 
Q 1584 2609 1581 2597 
L 1203 1100 
Q 1141 834 1141 641 
Q 1141 403 1253 250 
Q 1366 97 1594 97 
Q 2059 97 2413 678 
Q 2416 684 2417 687 
Q 2419 691 2419 697 
L 2881 2553 
Q 2903 2638 2981 2698 
Q 3059 2759 3150 2759 
Q 3225 2759 3283 2709 
Q 3341 2659 3341 2578 
Q 3341 2541 3334 2528 
L 2875 684 
Q 2828 503 2828 372 
Q 2828 97 3016 97 
Q 3216 97 3317 344 
Q 3419 591 3494 941 
Q 3506 978 3547 978 
L 3622 978 
Q 3647 978 3664 958 
Q 3681 938 3681 916 
Q 3569 469 3436 198 
Q 3303 -72 3003 -72 
Q 2791 -72 2627 50 
Q 2463 172 2413 378 
Q 2253 178 2039 53 
Q 1825 -72 1588 -72 
Q 1188 -72 959 116 
L 634 -1178 
Q 616 -1269 541 -1325 
Q 466 -1381 372 -1381 
Q 294 -1381 236 -1332 
Q 178 -1284 178 -1203 
z
" transform="scale(0.015625)"/>
       <path id="TimesNewRomanPSMT-6d" d="M 1050 2338 
Q 1363 2650 1419 2697 
Q 1559 2816 1721 2881 
Q 1884 2947 2044 2947 
Q 2313 2947 2506 2790 
Q 2700 2634 2766 2338 
Q 3088 2713 3309 2830 
Q 3531 2947 3766 2947 
Q 3994 2947 4170 2830 
Q 4347 2713 4450 2447 
Q 4519 2266 4519 1878 
L 4519 647 
Q 4519 378 4559 278 
Q 4591 209 4675 161 
Q 4759 113 4950 113 
L 4950 0 
L 3538 0 
L 3538 113 
L 3597 113 
Q 3781 113 3884 184 
Q 3956 234 3988 344 
Q 4000 397 4000 647 
L 4000 1878 
Q 4000 2228 3916 2372 
Q 3794 2572 3525 2572 
Q 3359 2572 3192 2489 
Q 3025 2406 2788 2181 
L 2781 2147 
L 2788 2013 
L 2788 647 
Q 2788 353 2820 281 
Q 2853 209 2943 161 
Q 3034 113 3253 113 
L 3253 0 
L 1806 0 
L 1806 113 
Q 2044 113 2133 169 
Q 2222 225 2256 338 
Q 2272 391 2272 647 
L 2272 1878 
Q 2272 2228 2169 2381 
Q 2031 2581 1784 2581 
Q 1616 2581 1450 2491 
Q 1191 2353 1050 2181 
L 1050 647 
Q 1050 366 1089 281 
Q 1128 197 1204 155 
Q 1281 113 1516 113 
L 1516 0 
L 100 0 
L 100 113 
Q 297 113 375 155 
Q 453 197 493 289 
Q 534 381 534 647 
L 534 1741 
Q 534 2213 506 2350 
Q 484 2453 437 2492 
Q 391 2531 309 2531 
Q 222 2531 100 2484 
L 53 2597 
L 916 2947 
L 1050 2947 
L 1050 2338 
z
" transform="scale(0.015625)"/>
       <path id="TimesNewRomanPSMT-5d" d="M 234 4334 
L 1609 4334 
L 1609 -1272 
L 234 -1272 
L 234 -1025 
L 1141 -1025 
L 1141 4088 
L 234 4088 
L 234 4334 
z
" transform="scale(0.015625)"/>
      </defs>
      <use xlink:href="#TimesNewRomanPSMT-48" transform="translate(0 0.5625)"/>
      <use xlink:href="#TimesNewRomanPSMT-65" transform="translate(72.216797 0.5625)"/>
      <use xlink:href="#TimesNewRomanPSMT-69" transform="translate(116.601562 0.5625)"/>
      <use xlink:href="#TimesNewRomanPSMT-67" transform="translate(144.384766 0.5625)"/>
      <use xlink:href="#TimesNewRomanPSMT-68" transform="translate(194.384766 0.5625)"/>
      <use xlink:href="#TimesNewRomanPSMT-74" transform="translate(244.384766 0.5625)"/>
      <use xlink:href="#TimesNewRomanPSMT-20" transform="translate(272.167969 0.5625)"/>
      <use xlink:href="#Cmmi10-68" transform="translate(297.167969 0.5625)"/>
      <use xlink:href="#Cmr10-63" transform="translate(354.785156 -16.44375) scale(0.7)"/>
      <use xlink:href="#Cmmi10-3a" transform="translate(385.854492 -16.44375) scale(0.7)"/>
      <use xlink:href="#Cmr10-6d" transform="translate(405.234375 -16.44375) scale(0.7)"/>
      <use xlink:href="#Cmmi10-3a" transform="translate(463.544922 -16.44375) scale(0.7)"/>
      <use xlink:href="#TimesNewRomanPSMT-20" transform="translate(489.302148 0.5625)"/>
      <use xlink:href="#TimesNewRomanPSMT-5b" transform="translate(514.302148 0.5625)"/>
      <use xlink:href="#Cmmi10-b9" transform="translate(547.60293 0.5625)"/>
      <use xlink:href="#TimesNewRomanPSMT-6d" transform="translate(607.808008 0.5625)"/>
      <use xlink:href="#TimesNewRomanPSMT-5d" transform="translate(685.591211 0.5625)"/>
     </g>
    </g>
   </g>
   <g id="matplotlib.axis_2">
    <g id="ytick_1">
     <g id="line2d_6">
      <defs>
       <path id="m9e61d71130" d="M 0 0 
L -3.5 0 
" style="stroke: #000000; stroke-width: 0.8"/>
      </defs>
      <g>
       <use xlink:href="#m9e61d71130" x="51.86" y="235.96" style="stroke: #000000; stroke-width: 0.8"/>
      </g>
     </g>
     <g id="text_7">
      <!-- 0.0 -->
      <g transform="translate(29.86 240.12625) scale(0.12 -0.12)">
       <defs>
        <path id="TimesNewRomanPSMT-2e" d="M 800 606 
Q 947 606 1047 504 
Q 1147 403 1147 259 
Q 1147 116 1045 14 
Q 944 -88 800 -88 
Q 656 -88 554 14 
Q 453 116 453 259 
Q 453 406 554 506 
Q 656 606 800 606 
z
" transform="scale(0.015625)"/>
       </defs>
       <use xlink:href="#TimesNewRomanPSMT-30"/>
       <use xlink:href="#TimesNewRomanPSMT-2e" x="50"/>
       <use xlink:href="#TimesNewRomanPSMT-30" x="75"/>
      </g>
     </g>
    </g>
    <g id="ytick_2">
     <g id="line2d_7">
      <g>
       <use xlink:href="#m9e61d71130" x="51.86" y="205.903236" style="stroke: #000000; stroke-width: 0.8"/>
      </g>
     </g>
     <g id="text_8">
      <!-- 0.2 -->
      <g transform="translate(29.86 210.069486) scale(0.12 -0.12)">
       <use xlink:href="#TimesNewRomanPSMT-30"/>
       <use xlink:href="#TimesNewRomanPSMT-2e" x="50"/>
       <use xlink:href="#TimesNewRomanPSMT-32" x="75"/>
      </g>
     </g>
    </g>
    <g id="ytick_3">
     <g id="line2d_8">
      <g>
       <use xlink:href="#m9e61d71130" x="51.86" y="175.846473" style="stroke: #000000; stroke-width: 0.8"/>
      </g>
     </g>
     <g id="text_9">
      <!-- 0.4 -->
      <g transform="translate(29.86 180.012723) scale(0.12 -0.12)">
       <use xlink:href="#TimesNewRomanPSMT-30"/>
       <use xlink:href="#TimesNewRomanPSMT-2e" x="50"/>
       <use xlink:href="#TimesNewRomanPSMT-34" x="75"/>
      </g>
     </g>
    </g>
    <g id="ytick_4">
     <g id="line2d_9">
      <g>
       <use xlink:href="#m9e61d71130" x="51.86" y="145.789709" style="stroke: #000000; stroke-width: 0.8"/>
      </g>
     </g>
     <g id="text_10">
      <!-- 0.6 -->
      <g transform="translate(29.86 149.955959) scale(0.12 -0.12)">
       <defs>
        <path id="TimesNewRomanPSMT-36" d="M 2869 4325 
L 2869 4209 
Q 2456 4169 2195 4045 
Q 1934 3922 1679 3669 
Q 1425 3416 1258 3105 
Q 1091 2794 978 2366 
Q 1428 2675 1881 2675 
Q 2316 2675 2634 2325 
Q 2953 1975 2953 1425 
Q 2953 894 2631 456 
Q 2244 -75 1606 -75 
Q 1172 -75 869 213 
Q 275 772 275 1663 
Q 275 2231 503 2743 
Q 731 3256 1154 3653 
Q 1578 4050 1965 4187 
Q 2353 4325 2688 4325 
L 2869 4325 
z
M 925 2138 
Q 869 1716 869 1456 
Q 869 1156 980 804 
Q 1091 453 1309 247 
Q 1469 100 1697 100 
Q 1969 100 2183 356 
Q 2397 613 2397 1088 
Q 2397 1622 2184 2012 
Q 1972 2403 1581 2403 
Q 1463 2403 1327 2353 
Q 1191 2303 925 2138 
z
" transform="scale(0.015625)"/>
       </defs>
       <use xlink:href="#TimesNewRomanPSMT-30"/>
       <use xlink:href="#TimesNewRomanPSMT-2e" x="50"/>
       <use xlink:href="#TimesNewRomanPSMT-36" x="75"/>
      </g>
     </g>
    </g>
    <g id="ytick_5">
     <g id="line2d_10">
      <g>
       <use xlink:href="#m9e61d71130" x="51.86" y="115.732946" style="stroke: #000000; stroke-width: 0.8"/>
      </g>
     </g>
     <g id="text_11">
      <!-- 0.8 -->
      <g transform="translate(29.86 119.899196) scale(0.12 -0.12)">
       <defs>
        <path id="TimesNewRomanPSMT-38" d="M 1228 2134 
Q 725 2547 579 2797 
Q 434 3047 434 3316 
Q 434 3728 753 4026 
Q 1072 4325 1600 4325 
Q 2113 4325 2425 4047 
Q 2738 3769 2738 3413 
Q 2738 3175 2569 2928 
Q 2400 2681 1866 2347 
Q 2416 1922 2594 1678 
Q 2831 1359 2831 1006 
Q 2831 559 2490 242 
Q 2150 -75 1597 -75 
Q 994 -75 656 303 
Q 388 606 388 966 
Q 388 1247 577 1523 
Q 766 1800 1228 2134 
z
M 1719 2469 
Q 2094 2806 2194 3001 
Q 2294 3197 2294 3444 
Q 2294 3772 2109 3958 
Q 1925 4144 1606 4144 
Q 1288 4144 1088 3959 
Q 888 3775 888 3528 
Q 888 3366 970 3203 
Q 1053 3041 1206 2894 
L 1719 2469 
z
M 1375 2016 
Q 1116 1797 991 1539 
Q 866 1281 866 981 
Q 866 578 1086 336 
Q 1306 94 1647 94 
Q 1984 94 2187 284 
Q 2391 475 2391 747 
Q 2391 972 2272 1150 
Q 2050 1481 1375 2016 
z
" transform="scale(0.015625)"/>
       </defs>
       <use xlink:href="#TimesNewRomanPSMT-30"/>
       <use xlink:href="#TimesNewRomanPSMT-2e" x="50"/>
       <use xlink:href="#TimesNewRomanPSMT-38" x="75"/>
      </g>
     </g>
    </g>
    <g id="ytick_6">
     <g id="line2d_11">
      <g>
       <use xlink:href="#m9e61d71130" x="51.86" y="85.676182" style="stroke: #000000; stroke-width: 0.8"/>
      </g>
     </g>
     <g id="text_12">
      <!-- 1.0 -->
      <g transform="translate(29.86 89.842432) scale(0.12 -0.12)">
       <use xlink:href="#TimesNewRomanPSMT-31"/>
       <use xlink:href="#TimesNewRomanPSMT-2e" x="50"/>
       <use xlink:href="#TimesNewRomanPSMT-30" x="75"/>
      </g>
     </g>
    </g>
    <g id="ytick_7">
     <g id="line2d_12">
      <g>
       <use xlink:href="#m9e61d71130" x="51.86" y="55.619419" style="stroke: #000000; stroke-width: 0.8"/>
      </g>
     </g>
     <g id="text_13">
      <!-- 1.2 -->
      <g transform="translate(29.86 59.785669) scale(0.12 -0.12)">
       <use xlink:href="#TimesNewRomanPSMT-31"/>
       <use xlink:href="#TimesNewRomanPSMT-2e" x="50"/>
       <use xlink:href="#TimesNewRomanPSMT-32" x="75"/>
      </g>
     </g>
    </g>
    <g id="ytick_8">
     <g id="line2d_13">
      <g>
       <use xlink:href="#m9e61d71130" x="51.86" y="25.562655" style="stroke: #000000; stroke-width: 0.8"/>
      </g>
     </g>
     <g id="text_14">
      <!-- 1.4 -->
      <g transform="translate(29.86 29.728905) scale(0.12 -0.12)">
       <use xlink:href="#TimesNewRomanPSMT-31"/>
       <use xlink:href="#TimesNewRomanPSMT-2e" x="50"/>
       <use xlink:href="#TimesNewRomanPSMT-34" x="75"/>
      </g>
     </g>
    </g>
    <g id="text_15">
     <!-- PDF -->
     <g transform="translate(22.865313 137.300625) rotate(-90) scale(0.14 -0.14)">
      <defs>
       <path id="TimesNewRomanPSMT-50" d="M 1313 1984 
L 1313 750 
Q 1313 350 1400 253 
Q 1519 116 1759 116 
L 1922 116 
L 1922 0 
L 106 0 
L 106 116 
L 266 116 
Q 534 116 650 291 
Q 713 388 713 750 
L 713 3488 
Q 713 3888 628 3984 
Q 506 4122 266 4122 
L 106 4122 
L 106 4238 
L 1659 4238 
Q 2228 4238 2556 4120 
Q 2884 4003 3109 3725 
Q 3334 3447 3334 3066 
Q 3334 2547 2992 2222 
Q 2650 1897 2025 1897 
Q 1872 1897 1694 1919 
Q 1516 1941 1313 1984 
z
M 1313 2163 
Q 1478 2131 1606 2115 
Q 1734 2100 1825 2100 
Q 2150 2100 2386 2351 
Q 2622 2603 2622 3003 
Q 2622 3278 2509 3514 
Q 2397 3750 2190 3867 
Q 1984 3984 1722 3984 
Q 1563 3984 1313 3925 
L 1313 2163 
z
" transform="scale(0.015625)"/>
       <path id="TimesNewRomanPSMT-44" d="M 109 0 
L 109 116 
L 269 116 
Q 538 116 650 288 
Q 719 391 719 750 
L 719 3488 
Q 719 3884 631 3984 
Q 509 4122 269 4122 
L 109 4122 
L 109 4238 
L 1834 4238 
Q 2784 4238 3279 4022 
Q 3775 3806 4076 3303 
Q 4378 2800 4378 2141 
Q 4378 1256 3841 663 
Q 3238 0 2003 0 
L 109 0 
z
M 1319 306 
Q 1716 219 1984 219 
Q 2709 219 3187 728 
Q 3666 1238 3666 2109 
Q 3666 2988 3187 3494 
Q 2709 4000 1959 4000 
Q 1678 4000 1319 3909 
L 1319 306 
z
" transform="scale(0.015625)"/>
       <path id="TimesNewRomanPSMT-46" d="M 1309 4006 
L 1309 2341 
L 2081 2341 
Q 2347 2341 2470 2458 
Q 2594 2575 2634 2922 
L 2750 2922 
L 2750 1488 
L 2634 1488 
Q 2631 1734 2570 1850 
Q 2509 1966 2401 2023 
Q 2294 2081 2081 2081 
L 1309 2081 
L 1309 750 
Q 1309 428 1350 325 
Q 1381 247 1481 191 
Q 1619 116 1769 116 
L 1922 116 
L 1922 0 
L 103 0 
L 103 116 
L 253 116 
Q 516 116 634 269 
Q 709 369 709 750 
L 709 3488 
Q 709 3809 669 3913 
Q 638 3991 541 4047 
Q 406 4122 253 4122 
L 103 4122 
L 103 4238 
L 3256 4238 
L 3297 3306 
L 3188 3306 
Q 3106 3603 2998 3742 
Q 2891 3881 2733 3943 
Q 2575 4006 2244 4006 
L 1309 4006 
z
" transform="scale(0.015625)"/>
      </defs>
      <use xlink:href="#TimesNewRomanPSMT-50"/>
      <use xlink:href="#TimesNewRomanPSMT-44" x="55.615234"/>
      <use xlink:href="#TimesNewRomanPSMT-46" x="127.832031"/>
     </g>
    </g>
   </g>
   <g id="line2d_14">
    <path d="M 55.259907 235.96 
L 58.007307 235.96 
L 60.754707 235.96 
L 63.502107 235.96 
L 66.249507 235.96 
L 68.996907 235.96 
L 71.744307 235.96 
L 74.491707 235.96 
L 77.239107 235.96 
L 79.986507 235.96 
L 82.733907 235.96 
L 85.481307 235.96 
L 88.228707 235.96 
L 90.976106 235.96 
L 93.723506 235.96 
L 96.470906 235.96 
L 99.218306 235.96 
L 101.965706 235.96 
L 104.713106 235.959946 
L 107.460506 235.952917 
L 110.207906 235.765549 
L 112.955306 234.107951 
L 115.702706 227.344142 
L 118.450106 211.304364 
L 121.197506 185.260241 
L 123.944906 152.781408 
L 126.692305 119.141338 
L 129.439705 88.698515 
L 132.187105 63.922679 
L 134.934505 45.628805 
L 137.681905 33.584377 
L 140.429305 27.041602 
L 143.176705 25.091792 
L 145.924105 26.935439 
L 148.671505 32.111367 
L 151.418905 40.441446 
L 154.166305 51.646229 
L 156.913705 65.084681 
L 159.661105 79.851384 
L 162.408504 95.033527 
L 165.155904 109.898171 
L 167.903304 123.952481 
L 170.650704 136.919168 
L 173.398104 148.681331 
L 176.145504 159.227388 
L 178.892904 168.608283 
L 181.640304 176.907723 
L 184.387704 184.223481 
L 187.135104 190.656104 
L 189.882504 196.302719 
L 192.629904 201.253712 
L 195.377304 205.591434 
L 198.124704 209.389867 
L 200.872103 212.714895 
L 203.619503 215.624823 
L 206.366903 218.171049 
L 209.114303 220.398818 
L 211.861703 222.347801 
L 214.609103 224.052803 
L 217.356503 225.544318 
L 220.103903 226.849046 
L 222.851303 227.990359 
L 225.598703 228.988719 
L 228.346103 229.862016 
L 231.093503 230.625926 
L 233.840903 231.29414 
L 236.588302 231.878649 
L 239.335702 232.389934 
L 242.083102 232.837169 
L 244.830502 233.228379 
L 247.577902 233.57058 
L 250.325302 233.869911 
L 253.072702 234.131744 
L 255.820102 234.360778 
L 258.567502 234.561119 
L 261.314902 234.736362 
L 264.062302 234.889653 
L 266.809702 235.023739 
L 269.557102 235.141029 
L 272.304501 235.243625 
L 275.051901 235.333368 
L 277.799301 235.411868 
L 280.546701 235.480535 
L 283.294101 235.5406 
L 286.041501 235.59314 
L 288.788901 235.639098 
L 291.536301 235.679299 
L 294.283701 235.714463 
L 297.031101 235.745222 
L 299.778501 235.772128 
L 302.525901 235.795664 
L 305.273301 235.816251 
L 308.020701 235.834259 
L 310.7681 235.850011 
L 313.5155 235.86379 
L 316.2629 235.875843 
L 319.0103 235.886385 
L 321.7577 235.895607 
L 324.5051 235.903674 
L 327.2525 235.91073 
" clip-path="url(#pea77b1288b)" style="fill: none; stroke: #000000; stroke-width: 2; stroke-linecap: square"/>
   </g>
   <g id="patch_53">
    <path d="M 51.86 235.96 
L 51.86 12.96 
" style="fill: none; stroke: #000000; stroke-width: 0.8; stroke-linejoin: miter; stroke-linecap: square"/>
   </g>
   <g id="patch_54">
    <path d="M 327.2525 235.96 
L 327.2525 12.96 
" style="fill: none; stroke: #000000; stroke-width: 0.8; stroke-linejoin: miter; stroke-linecap: square"/>
   </g>
   <g id="patch_55">
    <path d="M 51.86 235.96 
L 327.2525 235.96 
" style="fill: none; stroke: #000000; stroke-width: 0.8; stroke-linejoin: miter; stroke-linecap: square"/>
   </g>
   <g id="patch_56">
    <path d="M 51.86 12.96 
L 327.2525 12.96 
" style="fill: none; stroke: #000000; stroke-width: 0.8; stroke-linejoin: miter; stroke-linecap: square"/>
   </g>
   <g id="legend_1">
    <g id="patch_57">
     <path d="M 202.6925 58.56 
L 318.8525 58.56 
Q 321.2525 58.56 321.2525 56.16 
L 321.2525 21.36 
Q 321.2525 18.96 318.8525 18.96 
L 202.6925 18.96 
Q 200.2925 18.96 200.2925 21.36 
L 200.2925 56.16 
Q 200.2925 58.56 202.6925 58.56 
z
" style="fill: #ffffff; opacity: 0.8; stroke: #cccccc; stroke-linejoin: miter"/>
    </g>
    <g id="patch_58">
     <path d="M 205.0925 32.76 
L 229.0925 32.76 
L 229.0925 24.36 
L 205.0925 24.36 
z
" style="fill: #66cdaa; stroke: #20b2aa; stroke-width: 2; stroke-linejoin: miter"/>
    </g>
    <g id="text_16">
     <!-- Numer. $p(h_{\text{c.m.}})$ -->
     <g transform="translate(238.6925 32.76) scale(0.12 -0.12)">
      <defs>
       <path id="TimesNewRomanPSMT-4e" d="M -84 4238 
L 1066 4238 
L 3656 1059 
L 3656 3503 
Q 3656 3894 3569 3991 
Q 3453 4122 3203 4122 
L 3056 4122 
L 3056 4238 
L 4531 4238 
L 4531 4122 
L 4381 4122 
Q 4113 4122 4000 3959 
Q 3931 3859 3931 3503 
L 3931 -69 
L 3819 -69 
L 1025 3344 
L 1025 734 
Q 1025 344 1109 247 
Q 1228 116 1475 116 
L 1625 116 
L 1625 0 
L 150 0 
L 150 116 
L 297 116 
Q 569 116 681 278 
Q 750 378 750 734 
L 750 3681 
Q 566 3897 470 3965 
Q 375 4034 191 4094 
Q 100 4122 -84 4122 
L -84 4238 
z
" transform="scale(0.015625)"/>
       <path id="TimesNewRomanPSMT-75" d="M 2709 2863 
L 2709 1128 
Q 2709 631 2732 520 
Q 2756 409 2807 365 
Q 2859 322 2928 322 
Q 3025 322 3147 375 
L 3191 266 
L 2334 -88 
L 2194 -88 
L 2194 519 
Q 1825 119 1631 15 
Q 1438 -88 1222 -88 
Q 981 -88 804 51 
Q 628 191 559 409 
Q 491 628 491 1028 
L 491 2306 
Q 491 2509 447 2587 
Q 403 2666 317 2708 
Q 231 2750 6 2747 
L 6 2863 
L 1009 2863 
L 1009 947 
Q 1009 547 1148 422 
Q 1288 297 1484 297 
Q 1619 297 1789 381 
Q 1959 466 2194 703 
L 2194 2325 
Q 2194 2569 2105 2655 
Q 2016 2741 1734 2747 
L 1734 2863 
L 2709 2863 
z
" transform="scale(0.015625)"/>
       <path id="TimesNewRomanPSMT-72" d="M 1038 2947 
L 1038 2303 
Q 1397 2947 1775 2947 
Q 1947 2947 2059 2842 
Q 2172 2738 2172 2600 
Q 2172 2478 2090 2393 
Q 2009 2309 1897 2309 
Q 1788 2309 1652 2417 
Q 1516 2525 1450 2525 
Q 1394 2525 1328 2463 
Q 1188 2334 1038 2041 
L 1038 669 
Q 1038 431 1097 309 
Q 1138 225 1241 169 
Q 1344 113 1538 113 
L 1538 0 
L 72 0 
L 72 113 
Q 291 113 397 181 
Q 475 231 506 341 
Q 522 394 522 644 
L 522 1753 
Q 522 2253 501 2348 
Q 481 2444 426 2487 
Q 372 2531 291 2531 
Q 194 2531 72 2484 
L 41 2597 
L 906 2947 
L 1038 2947 
z
" transform="scale(0.015625)"/>
       <path id="Cmmi10-70" d="M -159 -1241 
Q -219 -1241 -219 -1159 
Q -197 -1019 -134 -1019 
Q 66 -1019 145 -983 
Q 225 -947 269 -800 
L 991 2081 
Q 1038 2200 1038 2388 
Q 1038 2663 850 2663 
Q 650 2663 553 2423 
Q 456 2184 366 1819 
Q 366 1778 313 1778 
L 238 1778 
Q 222 1778 203 1801 
Q 184 1825 184 1844 
Q 253 2122 317 2315 
Q 381 2509 517 2668 
Q 653 2828 856 2828 
Q 1075 2828 1240 2704 
Q 1406 2581 1453 2369 
Q 1628 2572 1840 2700 
Q 2053 2828 2278 2828 
Q 2547 2828 2745 2684 
Q 2944 2541 3044 2308 
Q 3144 2075 3144 1806 
Q 3144 1394 2933 953 
Q 2722 513 2361 220 
Q 2000 -72 1588 -72 
Q 1400 -72 1248 34 
Q 1097 141 1013 313 
L 722 -825 
Q 706 -919 703 -934 
Q 703 -1019 1125 -1019 
Q 1191 -1019 1191 -1100 
Q 1169 -1184 1155 -1212 
Q 1141 -1241 1081 -1241 
L -159 -1241 
z
M 1594 97 
Q 1816 97 2006 280 
Q 2197 463 2316 691 
Q 2403 863 2479 1111 
Q 2556 1359 2612 1640 
Q 2669 1922 2669 2088 
Q 2669 2234 2630 2362 
Q 2591 2491 2502 2577 
Q 2413 2663 2266 2663 
Q 2031 2663 1823 2495 
Q 1616 2328 1447 2081 
L 1447 2059 
L 1094 647 
Q 1138 419 1263 258 
Q 1388 97 1594 97 
z
" transform="scale(0.015625)"/>
       <path id="Cmr10-28" d="M 1984 -1588 
Q 1628 -1306 1370 -942 
Q 1113 -578 948 -165 
Q 784 247 703 697 
Q 622 1147 622 1600 
Q 622 2059 703 2509 
Q 784 2959 951 3375 
Q 1119 3791 1378 4153 
Q 1638 4516 1984 4788 
Q 1984 4800 2016 4800 
L 2075 4800 
Q 2094 4800 2109 4783 
Q 2125 4766 2125 4744 
Q 2125 4716 2113 4703 
Q 1800 4397 1592 4047 
Q 1384 3697 1257 3301 
Q 1131 2906 1075 2482 
Q 1019 2059 1019 1600 
Q 1019 -434 2106 -1491 
Q 2125 -1509 2125 -1544 
Q 2125 -1559 2108 -1579 
Q 2091 -1600 2075 -1600 
L 2016 -1600 
Q 1984 -1600 1984 -1588 
z
" transform="scale(0.015625)"/>
       <path id="Cmr10-29" d="M 416 -1600 
Q 359 -1600 359 -1544 
Q 359 -1516 372 -1503 
Q 1466 -434 1466 1600 
Q 1466 3634 384 4691 
Q 359 4706 359 4744 
Q 359 4766 376 4783 
Q 394 4800 416 4800 
L 475 4800 
Q 494 4800 506 4788 
Q 966 4425 1272 3906 
Q 1578 3388 1720 2800 
Q 1863 2213 1863 1600 
Q 1863 1147 1786 708 
Q 1709 269 1542 -157 
Q 1375 -584 1119 -945 
Q 863 -1306 506 -1588 
Q 494 -1600 475 -1600 
L 416 -1600 
z
" transform="scale(0.015625)"/>
      </defs>
      <use xlink:href="#TimesNewRomanPSMT-4e"/>
      <use xlink:href="#TimesNewRomanPSMT-75" transform="translate(72.216797 0)"/>
      <use xlink:href="#TimesNewRomanPSMT-6d" transform="translate(122.216797 0)"/>
      <use xlink:href="#TimesNewRomanPSMT-65" transform="translate(200 0)"/>
      <use xlink:href="#TimesNewRomanPSMT-72" transform="translate(244.384766 0)"/>
      <use xlink:href="#TimesNewRomanPSMT-2e" transform="translate(277.685547 0)"/>
      <use xlink:href="#TimesNewRomanPSMT-20" transform="translate(302.685547 0)"/>
      <use xlink:href="#Cmmi10-70" transform="translate(327.685547 0)"/>
      <use xlink:href="#Cmr10-28" transform="translate(377.978516 0)"/>
      <use xlink:href="#Cmmi10-68" transform="translate(416.796875 0)"/>
      <use xlink:href="#Cmr10-63" transform="translate(474.414062 -17.00625) scale(0.7)"/>
      <use xlink:href="#Cmmi10-3a" transform="translate(505.483398 -17.00625) scale(0.7)"/>
      <use xlink:href="#Cmr10-6d" transform="translate(524.863281 -17.00625) scale(0.7)"/>
      <use xlink:href="#Cmmi10-3a" transform="translate(583.173828 -17.00625) scale(0.7)"/>
      <use xlink:href="#Cmr10-29" transform="translate(608.931055 0)"/>
     </g>
    </g>
    <g id="line2d_15">
     <path d="M 205.0925 46.56 
L 217.0925 46.56 
L 229.0925 46.56 
" style="fill: none; stroke: #000000; stroke-width: 2; stroke-linecap: square"/>
    </g>
    <g id="text_17">
     <!-- Analyt. $p(h_{\text{c.m.}})$ -->
     <g transform="translate(238.6925 50.76) scale(0.12 -0.12)">
      <defs>
       <path id="TimesNewRomanPSMT-41" d="M 2928 1419 
L 1288 1419 
L 1000 750 
Q 894 503 894 381 
Q 894 284 986 211 
Q 1078 138 1384 116 
L 1384 0 
L 50 0 
L 50 116 
Q 316 163 394 238 
Q 553 388 747 847 
L 2238 4334 
L 2347 4334 
L 3822 809 
Q 4000 384 4145 257 
Q 4291 131 4550 116 
L 4550 0 
L 2878 0 
L 2878 116 
Q 3131 128 3220 200 
Q 3309 272 3309 375 
Q 3309 513 3184 809 
L 2928 1419 
z
M 2841 1650 
L 2122 3363 
L 1384 1650 
L 2841 1650 
z
" transform="scale(0.015625)"/>
       <path id="TimesNewRomanPSMT-6e" d="M 1034 2341 
Q 1538 2947 1994 2947 
Q 2228 2947 2397 2830 
Q 2566 2713 2666 2444 
Q 2734 2256 2734 1869 
L 2734 647 
Q 2734 375 2778 278 
Q 2813 200 2889 156 
Q 2966 113 3172 113 
L 3172 0 
L 1756 0 
L 1756 113 
L 1816 113 
Q 2016 113 2095 173 
Q 2175 234 2206 353 
Q 2219 400 2219 647 
L 2219 1819 
Q 2219 2209 2117 2386 
Q 2016 2563 1775 2563 
Q 1403 2563 1034 2156 
L 1034 647 
Q 1034 356 1069 288 
Q 1113 197 1189 155 
Q 1266 113 1500 113 
L 1500 0 
L 84 0 
L 84 113 
L 147 113 
Q 366 113 442 223 
Q 519 334 519 647 
L 519 1709 
Q 519 2225 495 2337 
Q 472 2450 423 2490 
Q 375 2531 294 2531 
Q 206 2531 84 2484 
L 38 2597 
L 900 2947 
L 1034 2947 
L 1034 2341 
z
" transform="scale(0.015625)"/>
       <path id="TimesNewRomanPSMT-61" d="M 1822 413 
Q 1381 72 1269 19 
Q 1100 -59 909 -59 
Q 613 -59 420 144 
Q 228 347 228 678 
Q 228 888 322 1041 
Q 450 1253 767 1440 
Q 1084 1628 1822 1897 
L 1822 2009 
Q 1822 2438 1686 2597 
Q 1550 2756 1291 2756 
Q 1094 2756 978 2650 
Q 859 2544 859 2406 
L 866 2225 
Q 866 2081 792 2003 
Q 719 1925 600 1925 
Q 484 1925 411 2006 
Q 338 2088 338 2228 
Q 338 2497 613 2722 
Q 888 2947 1384 2947 
Q 1766 2947 2009 2819 
Q 2194 2722 2281 2516 
Q 2338 2381 2338 1966 
L 2338 994 
Q 2338 584 2353 492 
Q 2369 400 2405 369 
Q 2441 338 2488 338 
Q 2538 338 2575 359 
Q 2641 400 2828 588 
L 2828 413 
Q 2478 -56 2159 -56 
Q 2006 -56 1915 50 
Q 1825 156 1822 413 
z
M 1822 616 
L 1822 1706 
Q 1350 1519 1213 1441 
Q 966 1303 859 1153 
Q 753 1003 753 825 
Q 753 600 887 451 
Q 1022 303 1197 303 
Q 1434 303 1822 616 
z
" transform="scale(0.015625)"/>
       <path id="TimesNewRomanPSMT-6c" d="M 1184 4444 
L 1184 647 
Q 1184 378 1223 290 
Q 1263 203 1344 158 
Q 1425 113 1647 113 
L 1647 0 
L 244 0 
L 244 113 
Q 441 113 512 153 
Q 584 194 625 287 
Q 666 381 666 647 
L 666 3247 
Q 666 3731 644 3842 
Q 622 3953 573 3993 
Q 525 4034 450 4034 
Q 369 4034 244 3984 
L 191 4094 
L 1044 4444 
L 1184 4444 
z
" transform="scale(0.015625)"/>
       <path id="TimesNewRomanPSMT-79" d="M 38 2863 
L 1372 2863 
L 1372 2747 
L 1306 2747 
Q 1166 2747 1095 2686 
Q 1025 2625 1025 2534 
Q 1025 2413 1128 2197 
L 1825 753 
L 2466 2334 
Q 2519 2463 2519 2588 
Q 2519 2644 2497 2672 
Q 2472 2706 2419 2726 
Q 2366 2747 2231 2747 
L 2231 2863 
L 3163 2863 
L 3163 2747 
Q 3047 2734 2984 2696 
Q 2922 2659 2847 2556 
Q 2819 2513 2741 2316 
L 1575 -541 
Q 1406 -956 1132 -1168 
Q 859 -1381 606 -1381 
Q 422 -1381 303 -1275 
Q 184 -1169 184 -1031 
Q 184 -900 270 -820 
Q 356 -741 506 -741 
Q 609 -741 788 -809 
Q 913 -856 944 -856 
Q 1038 -856 1148 -759 
Q 1259 -663 1372 -384 
L 1575 113 
L 547 2272 
Q 500 2369 397 2513 
Q 319 2622 269 2659 
Q 197 2709 38 2747 
L 38 2863 
z
" transform="scale(0.015625)"/>
      </defs>
      <use xlink:href="#TimesNewRomanPSMT-41"/>
      <use xlink:href="#TimesNewRomanPSMT-6e" transform="translate(72.216797 0)"/>
      <use xlink:href="#TimesNewRomanPSMT-61" transform="translate(122.216797 0)"/>
      <use xlink:href="#TimesNewRomanPSMT-6c" transform="translate(166.601562 0)"/>
      <use xlink:href="#TimesNewRomanPSMT-79" transform="translate(194.384766 0)"/>
      <use xlink:href="#TimesNewRomanPSMT-74" transform="translate(244.384766 0)"/>
      <use xlink:href="#TimesNewRomanPSMT-2e" transform="translate(272.167969 0)"/>
      <use xlink:href="#TimesNewRomanPSMT-20" transform="translate(297.167969 0)"/>
      <use xlink:href="#Cmmi10-70" transform="translate(322.167969 0)"/>
      <use xlink:href="#Cmr10-28" transform="translate(372.460938 0)"/>
      <use xlink:href="#Cmmi10-68" transform="translate(411.279297 0)"/>
      <use xlink:href="#Cmr10-63" transform="translate(468.896484 -17.00625) scale(0.7)"/>
      <use xlink:href="#Cmmi10-3a" transform="translate(499.96582 -17.00625) scale(0.7)"/>
      <use xlink:href="#Cmr10-6d" transform="translate(519.345703 -17.00625) scale(0.7)"/>
      <use xlink:href="#Cmmi10-3a" transform="translate(577.65625 -17.00625) scale(0.7)"/>
      <use xlink:href="#Cmr10-29" transform="translate(603.413477 0)"/>
     </g>
    </g>
   </g>
  </g>
  <g id="axes_2">
   <g id="patch_59">
    <path d="M 394.1875 235.96 
L 669.58 235.96 
L 669.58 12.96 
L 394.1875 12.96 
z
" style="fill: #ffffff"/>
   </g>
   <g id="patch_60">
    <path d="M 394.1875 235.96 
L 399.69535 235.96 
L 399.69535 234.696171 
L 394.1875 234.696171 
z
" clip-path="url(#p6df21572ab)" style="fill: #66cdaa; stroke: #20b2aa; stroke-width: 2; stroke-linejoin: miter"/>
   </g>
   <g id="patch_61">
    <path d="M 399.69535 235.96 
L 405.2032 235.96 
L 405.2032 229.008941 
L 399.69535 229.008941 
z
" clip-path="url(#p6df21572ab)" style="fill: #66cdaa; stroke: #20b2aa; stroke-width: 2; stroke-linejoin: miter"/>
   </g>
   <g id="patch_62">
    <path d="M 405.2032 235.96 
L 410.71105 235.96 
L 410.71105 226.270645 
L 405.2032 226.270645 
z
" clip-path="url(#p6df21572ab)" style="fill: #66cdaa; stroke: #20b2aa; stroke-width: 2; stroke-linejoin: miter"/>
   </g>
   <g id="patch_63">
    <path d="M 410.71105 235.96 
L 416.2189 235.96 
L 416.2189 224.796178 
L 410.71105 224.796178 
z
" clip-path="url(#p6df21572ab)" style="fill: #66cdaa; stroke: #20b2aa; stroke-width: 2; stroke-linejoin: miter"/>
   </g>
   <g id="patch_64">
    <path d="M 416.2189 235.96 
L 421.72675 235.96 
L 421.72675 219.530225 
L 416.2189 219.530225 
z
" clip-path="url(#p6df21572ab)" style="fill: #66cdaa; stroke: #20b2aa; stroke-width: 2; stroke-linejoin: miter"/>
   </g>
   <g id="patch_65">
    <path d="M 421.72675 235.96 
L 427.2346 235.96 
L 427.2346 217.002567 
L 421.72675 217.002567 
z
" clip-path="url(#p6df21572ab)" style="fill: #66cdaa; stroke: #20b2aa; stroke-width: 2; stroke-linejoin: miter"/>
   </g>
   <g id="patch_66">
    <path d="M 427.2346 235.96 
L 432.74245 235.96 
L 432.74245 211.315337 
L 427.2346 211.315337 
z
" clip-path="url(#p6df21572ab)" style="fill: #66cdaa; stroke: #20b2aa; stroke-width: 2; stroke-linejoin: miter"/>
   </g>
   <g id="patch_67">
    <path d="M 432.74245 235.96 
L 438.2503 235.96 
L 438.2503 207.734488 
L 432.74245 207.734488 
z
" clip-path="url(#p6df21572ab)" style="fill: #66cdaa; stroke: #20b2aa; stroke-width: 2; stroke-linejoin: miter"/>
   </g>
   <g id="patch_68">
    <path d="M 438.2503 235.96 
L 443.75815 235.96 
L 443.75815 204.996193 
L 438.2503 204.996193 
z
" clip-path="url(#p6df21572ab)" style="fill: #66cdaa; stroke: #20b2aa; stroke-width: 2; stroke-linejoin: miter"/>
   </g>
   <g id="patch_69">
    <path d="M 443.75815 235.96 
L 449.266 235.96 
L 449.266 204.574916 
L 443.75815 204.574916 
z
" clip-path="url(#p6df21572ab)" style="fill: #66cdaa; stroke: #20b2aa; stroke-width: 2; stroke-linejoin: miter"/>
   </g>
   <g id="patch_70">
    <path d="M 449.266 235.96 
L 454.77385 235.96 
L 454.77385 198.045134 
L 449.266 198.045134 
z
" clip-path="url(#p6df21572ab)" style="fill: #66cdaa; stroke: #20b2aa; stroke-width: 2; stroke-linejoin: miter"/>
   </g>
   <g id="patch_71">
    <path d="M 454.77385 235.96 
L 460.2817 235.96 
L 460.2817 197.834496 
L 454.77385 197.834496 
z
" clip-path="url(#p6df21572ab)" style="fill: #66cdaa; stroke: #20b2aa; stroke-width: 2; stroke-linejoin: miter"/>
   </g>
   <g id="patch_72">
    <path d="M 460.2817 235.96 
L 465.78955 235.96 
L 465.78955 194.253647 
L 460.2817 194.253647 
z
" clip-path="url(#p6df21572ab)" style="fill: #66cdaa; stroke: #20b2aa; stroke-width: 2; stroke-linejoin: miter"/>
   </g>
   <g id="patch_73">
    <path d="M 465.78955 235.96 
L 471.2974 235.96 
L 471.2974 191.725989 
L 465.78955 191.725989 
z
" clip-path="url(#p6df21572ab)" style="fill: #66cdaa; stroke: #20b2aa; stroke-width: 2; stroke-linejoin: miter"/>
   </g>
   <g id="patch_74">
    <path d="M 471.2974 235.96 
L 476.80525 235.96 
L 476.80525 181.825997 
L 471.2974 181.825997 
z
" clip-path="url(#p6df21572ab)" style="fill: #66cdaa; stroke: #20b2aa; stroke-width: 2; stroke-linejoin: miter"/>
   </g>
   <g id="patch_75">
    <path d="M 476.80525 235.96 
L 482.3131 235.96 
L 482.3131 172.34728 
L 476.80525 172.34728 
z
" clip-path="url(#p6df21572ab)" style="fill: #66cdaa; stroke: #20b2aa; stroke-width: 2; stroke-linejoin: miter"/>
   </g>
   <g id="patch_76">
    <path d="M 482.3131 235.96 
L 487.82095 235.96 
L 487.82095 167.923879 
L 482.3131 167.923879 
z
" clip-path="url(#p6df21572ab)" style="fill: #66cdaa; stroke: #20b2aa; stroke-width: 2; stroke-linejoin: miter"/>
   </g>
   <g id="patch_77">
    <path d="M 487.82095 235.96 
L 493.3288 235.96 
L 493.3288 167.291965 
L 487.82095 167.291965 
z
" clip-path="url(#p6df21572ab)" style="fill: #66cdaa; stroke: #20b2aa; stroke-width: 2; stroke-linejoin: miter"/>
   </g>
   <g id="patch_78">
    <path d="M 493.3288 235.96 
L 498.83665 235.96 
L 498.83665 155.28559 
L 493.3288 155.28559 
z
" clip-path="url(#p6df21572ab)" style="fill: #66cdaa; stroke: #20b2aa; stroke-width: 2; stroke-linejoin: miter"/>
   </g>
   <g id="patch_79">
    <path d="M 498.83665 235.96 
L 504.3445 235.96 
L 504.3445 150.019637 
L 498.83665 150.019637 
z
" clip-path="url(#p6df21572ab)" style="fill: #66cdaa; stroke: #20b2aa; stroke-width: 2; stroke-linejoin: miter"/>
   </g>
   <g id="patch_80">
    <path d="M 504.3445 235.96 
L 509.85235 235.96 
L 509.85235 134.432414 
L 504.3445 134.432414 
z
" clip-path="url(#p6df21572ab)" style="fill: #66cdaa; stroke: #20b2aa; stroke-width: 2; stroke-linejoin: miter"/>
   </g>
   <g id="patch_81">
    <path d="M 509.85235 235.96 
L 515.3602 235.96 
L 515.3602 134.432414 
L 509.85235 134.432414 
z
" clip-path="url(#p6df21572ab)" style="fill: #66cdaa; stroke: #20b2aa; stroke-width: 2; stroke-linejoin: miter"/>
   </g>
   <g id="patch_82">
    <path d="M 515.3602 235.96 
L 520.86805 235.96 
L 520.86805 121.372849 
L 515.3602 121.372849 
z
" clip-path="url(#p6df21572ab)" style="fill: #66cdaa; stroke: #20b2aa; stroke-width: 2; stroke-linejoin: miter"/>
   </g>
   <g id="patch_83">
    <path d="M 520.86805 235.96 
L 526.3759 235.96 
L 526.3759 103.257968 
L 520.86805 103.257968 
z
" clip-path="url(#p6df21572ab)" style="fill: #66cdaa; stroke: #20b2aa; stroke-width: 2; stroke-linejoin: miter"/>
   </g>
   <g id="patch_84">
    <path d="M 526.3759 235.96 
L 531.88375 235.96 
L 531.88375 105.785626 
L 526.3759 105.785626 
z
" clip-path="url(#p6df21572ab)" style="fill: #66cdaa; stroke: #20b2aa; stroke-width: 2; stroke-linejoin: miter"/>
   </g>
   <g id="patch_85">
    <path d="M 531.88375 235.96 
L 537.3916 235.96 
L 537.3916 102.836692 
L 531.88375 102.836692 
z
" clip-path="url(#p6df21572ab)" style="fill: #66cdaa; stroke: #20b2aa; stroke-width: 2; stroke-linejoin: miter"/>
   </g>
   <g id="patch_86">
    <path d="M 537.3916 235.96 
L 542.89945 235.96 
L 542.89945 115.685619 
L 537.3916 115.685619 
z
" clip-path="url(#p6df21572ab)" style="fill: #66cdaa; stroke: #20b2aa; stroke-width: 2; stroke-linejoin: miter"/>
   </g>
   <g id="patch_87">
    <path d="M 542.89945 235.96 
L 548.4073 235.96 
L 548.4073 122.004763 
L 542.89945 122.004763 
z
" clip-path="url(#p6df21572ab)" style="fill: #66cdaa; stroke: #20b2aa; stroke-width: 2; stroke-linejoin: miter"/>
   </g>
   <g id="patch_88">
    <path d="M 548.4073 235.96 
L 553.91515 235.96 
L 553.91515 131.272842 
L 548.4073 131.272842 
z
" clip-path="url(#p6df21572ab)" style="fill: #66cdaa; stroke: #20b2aa; stroke-width: 2; stroke-linejoin: miter"/>
   </g>
   <g id="patch_89">
    <path d="M 553.91515 235.96 
L 559.423 235.96 
L 559.423 126.849441 
L 553.91515 126.849441 
z
" clip-path="url(#p6df21572ab)" style="fill: #66cdaa; stroke: #20b2aa; stroke-width: 2; stroke-linejoin: miter"/>
   </g>
   <g id="patch_90">
    <path d="M 559.423 235.96 
L 564.93085 235.96 
L 564.93085 141.172834 
L 559.423 141.172834 
z
" clip-path="url(#p6df21572ab)" style="fill: #66cdaa; stroke: #20b2aa; stroke-width: 2; stroke-linejoin: miter"/>
   </g>
   <g id="patch_91">
    <path d="M 564.93085 235.96 
L 570.4387 235.96 
L 570.4387 152.968571 
L 564.93085 152.968571 
z
" clip-path="url(#p6df21572ab)" style="fill: #66cdaa; stroke: #20b2aa; stroke-width: 2; stroke-linejoin: miter"/>
   </g>
   <g id="patch_92">
    <path d="M 570.4387 235.96 
L 575.94655 235.96 
L 575.94655 169.187708 
L 570.4387 169.187708 
z
" clip-path="url(#p6df21572ab)" style="fill: #66cdaa; stroke: #20b2aa; stroke-width: 2; stroke-linejoin: miter"/>
   </g>
   <g id="patch_93">
    <path d="M 575.94655 235.96 
L 581.4544 235.96 
L 581.4544 172.136642 
L 575.94655 172.136642 
z
" clip-path="url(#p6df21572ab)" style="fill: #66cdaa; stroke: #20b2aa; stroke-width: 2; stroke-linejoin: miter"/>
   </g>
   <g id="patch_94">
    <path d="M 581.4544 235.96 
L 586.96225 235.96 
L 586.96225 172.979194 
L 581.4544 172.979194 
z
" clip-path="url(#p6df21572ab)" style="fill: #66cdaa; stroke: #20b2aa; stroke-width: 2; stroke-linejoin: miter"/>
   </g>
   <g id="patch_95">
    <path d="M 586.96225 235.96 
L 592.4701 235.96 
L 592.4701 181.40472 
L 586.96225 181.40472 
z
" clip-path="url(#p6df21572ab)" style="fill: #66cdaa; stroke: #20b2aa; stroke-width: 2; stroke-linejoin: miter"/>
   </g>
   <g id="patch_96">
    <path d="M 592.4701 235.96 
L 597.97795 235.96 
L 597.97795 188.777055 
L 592.4701 188.777055 
z
" clip-path="url(#p6df21572ab)" style="fill: #66cdaa; stroke: #20b2aa; stroke-width: 2; stroke-linejoin: miter"/>
   </g>
   <g id="patch_97">
    <path d="M 597.97795 235.96 
L 603.4858 235.96 
L 603.4858 196.991943 
L 597.97795 196.991943 
z
" clip-path="url(#p6df21572ab)" style="fill: #66cdaa; stroke: #20b2aa; stroke-width: 2; stroke-linejoin: miter"/>
   </g>
   <g id="patch_98">
    <path d="M 603.4858 235.96 
L 608.99365 235.96 
L 608.99365 192.568542 
L 603.4858 192.568542 
z
" clip-path="url(#p6df21572ab)" style="fill: #66cdaa; stroke: #20b2aa; stroke-width: 2; stroke-linejoin: miter"/>
   </g>
   <g id="patch_99">
    <path d="M 608.99365 235.96 
L 614.5015 235.96 
L 614.5015 204.785554 
L 608.99365 204.785554 
z
" clip-path="url(#p6df21572ab)" style="fill: #66cdaa; stroke: #20b2aa; stroke-width: 2; stroke-linejoin: miter"/>
   </g>
   <g id="patch_100">
    <path d="M 614.5015 235.96 
L 620.00935 235.96 
L 620.00935 207.945127 
L 614.5015 207.945127 
z
" clip-path="url(#p6df21572ab)" style="fill: #66cdaa; stroke: #20b2aa; stroke-width: 2; stroke-linejoin: miter"/>
   </g>
   <g id="patch_101">
    <path d="M 620.00935 235.96 
L 625.5172 235.96 
L 625.5172 208.998317 
L 620.00935 208.998317 
z
" clip-path="url(#p6df21572ab)" style="fill: #66cdaa; stroke: #20b2aa; stroke-width: 2; stroke-linejoin: miter"/>
   </g>
   <g id="patch_102">
    <path d="M 625.5172 235.96 
L 631.02505 235.96 
L 631.02505 214.896185 
L 625.5172 214.896185 
z
" clip-path="url(#p6df21572ab)" style="fill: #66cdaa; stroke: #20b2aa; stroke-width: 2; stroke-linejoin: miter"/>
   </g>
   <g id="patch_103">
    <path d="M 631.02505 235.96 
L 636.5329 235.96 
L 636.5329 214.685547 
L 631.02505 214.685547 
z
" clip-path="url(#p6df21572ab)" style="fill: #66cdaa; stroke: #20b2aa; stroke-width: 2; stroke-linejoin: miter"/>
   </g>
   <g id="patch_104">
    <path d="M 636.5329 235.96 
L 642.04075 235.96 
L 642.04075 217.423843 
L 636.5329 217.423843 
z
" clip-path="url(#p6df21572ab)" style="fill: #66cdaa; stroke: #20b2aa; stroke-width: 2; stroke-linejoin: miter"/>
   </g>
   <g id="patch_105">
    <path d="M 642.04075 235.96 
L 647.5486 235.96 
L 647.5486 219.740863 
L 642.04075 219.740863 
z
" clip-path="url(#p6df21572ab)" style="fill: #66cdaa; stroke: #20b2aa; stroke-width: 2; stroke-linejoin: miter"/>
   </g>
   <g id="patch_106">
    <path d="M 647.5486 235.96 
L 653.05645 235.96 
L 653.05645 222.479159 
L 647.5486 222.479159 
z
" clip-path="url(#p6df21572ab)" style="fill: #66cdaa; stroke: #20b2aa; stroke-width: 2; stroke-linejoin: miter"/>
   </g>
   <g id="patch_107">
    <path d="M 653.05645 235.96 
L 658.5643 235.96 
L 658.5643 226.060007 
L 653.05645 226.060007 
z
" clip-path="url(#p6df21572ab)" style="fill: #66cdaa; stroke: #20b2aa; stroke-width: 2; stroke-linejoin: miter"/>
   </g>
   <g id="patch_108">
    <path d="M 658.5643 235.96 
L 664.07215 235.96 
L 664.07215 232.168513 
L 658.5643 232.168513 
z
" clip-path="url(#p6df21572ab)" style="fill: #66cdaa; stroke: #20b2aa; stroke-width: 2; stroke-linejoin: miter"/>
   </g>
   <g id="patch_109">
    <path d="M 664.07215 235.96 
L 669.58 235.96 
L 669.58 233.853619 
L 664.07215 233.853619 
z
" clip-path="url(#p6df21572ab)" style="fill: #66cdaa; stroke: #20b2aa; stroke-width: 2; stroke-linejoin: miter"/>
   </g>
   <g id="matplotlib.axis_3">
    <g id="xtick_6">
     <g id="line2d_16">
      <g>
       <use xlink:href="#m5cc72a49f1" x="455.385833" y="235.96" style="stroke: #000000; stroke-width: 0.8"/>
      </g>
     </g>
     <g id="text_18">
      <!-- 50 -->
      <g transform="translate(446.002396 251.2925) scale(0.12 -0.12)">
       <defs>
        <path id="TimesNewRomanPSMT-2212" d="M 3484 2000 
L 116 2000 
L 116 2256 
L 3484 2256 
L 3484 2000 
z
" transform="scale(0.015625)"/>
        <path id="TimesNewRomanPSMT-35" d="M 2778 4238 
L 2534 3706 
L 1259 3706 
L 981 3138 
Q 1809 3016 2294 2522 
Q 2709 2097 2709 1522 
Q 2709 1188 2573 903 
Q 2438 619 2231 419 
Q 2025 219 1772 97 
Q 1413 -75 1034 -75 
Q 653 -75 479 54 
Q 306 184 306 341 
Q 306 428 378 495 
Q 450 563 559 563 
Q 641 563 702 538 
Q 763 513 909 409 
Q 1144 247 1384 247 
Q 1750 247 2026 523 
Q 2303 800 2303 1197 
Q 2303 1581 2056 1914 
Q 1809 2247 1375 2428 
Q 1034 2569 447 2591 
L 1259 4238 
L 2778 4238 
z
" transform="scale(0.015625)"/>
       </defs>
       <use xlink:href="#TimesNewRomanPSMT-2212"/>
       <use xlink:href="#TimesNewRomanPSMT-35" x="56.396484"/>
       <use xlink:href="#TimesNewRomanPSMT-30" x="106.396484"/>
      </g>
     </g>
    </g>
    <g id="xtick_7">
     <g id="line2d_17">
      <g>
       <use xlink:href="#m5cc72a49f1" x="531.88375" y="235.96" style="stroke: #000000; stroke-width: 0.8"/>
      </g>
     </g>
     <g id="text_19">
      <!-- 0 -->
      <g transform="translate(528.88375 251.2925) scale(0.12 -0.12)">
       <use xlink:href="#TimesNewRomanPSMT-30"/>
      </g>
     </g>
    </g>
    <g id="xtick_8">
     <g id="line2d_18">
      <g>
       <use xlink:href="#m5cc72a49f1" x="608.381667" y="235.96" style="stroke: #000000; stroke-width: 0.8"/>
      </g>
     </g>
     <g id="text_20">
      <!-- 50 -->
      <g transform="translate(602.381667 251.2925) scale(0.12 -0.12)">
       <use xlink:href="#TimesNewRomanPSMT-35"/>
       <use xlink:href="#TimesNewRomanPSMT-30" x="50"/>
      </g>
     </g>
    </g>
    <g id="text_21">
     <!-- Orientation $\theta$ [$^{\circ}$] -->
     <g transform="translate(485.33375 267.604688) scale(0.14 -0.14)">
      <defs>
       <path id="TimesNewRomanPSMT-4f" d="M 2341 4334 
Q 3166 4334 3770 3707 
Q 4375 3081 4375 2144 
Q 4375 1178 3765 540 
Q 3156 -97 2291 -97 
Q 1416 -97 820 525 
Q 225 1147 225 2134 
Q 225 3144 913 3781 
Q 1509 4334 2341 4334 
z
M 2281 4106 
Q 1713 4106 1369 3684 
Q 941 3159 941 2147 
Q 941 1109 1384 550 
Q 1725 125 2284 125 
Q 2881 125 3270 590 
Q 3659 1056 3659 2059 
Q 3659 3147 3231 3681 
Q 2888 4106 2281 4106 
z
" transform="scale(0.015625)"/>
       <path id="TimesNewRomanPSMT-6f" d="M 1600 2947 
Q 2250 2947 2644 2453 
Q 2978 2031 2978 1484 
Q 2978 1100 2793 706 
Q 2609 313 2286 112 
Q 1963 -88 1566 -88 
Q 919 -88 538 428 
Q 216 863 216 1403 
Q 216 1797 411 2186 
Q 606 2575 925 2761 
Q 1244 2947 1600 2947 
z
M 1503 2744 
Q 1338 2744 1170 2645 
Q 1003 2547 900 2300 
Q 797 2053 797 1666 
Q 797 1041 1045 587 
Q 1294 134 1700 134 
Q 2003 134 2200 384 
Q 2397 634 2397 1244 
Q 2397 2006 2069 2444 
Q 1847 2744 1503 2744 
z
" transform="scale(0.015625)"/>
       <path id="Cmmi10-b5" d="M 1031 -72 
Q 741 -72 566 140 
Q 391 353 323 653 
Q 256 953 256 1247 
L 256 1253 
Q 256 1572 317 1915 
Q 378 2259 493 2601 
Q 609 2944 744 3213 
Q 838 3400 986 3631 
Q 1134 3863 1317 4064 
Q 1500 4266 1711 4389 
Q 1922 4513 2138 4513 
L 2144 4513 
Q 2375 4513 2529 4384 
Q 2684 4256 2770 4056 
Q 2856 3856 2890 3628 
Q 2925 3400 2925 3194 
Q 2925 2709 2794 2204 
Q 2663 1700 2431 1228 
Q 2344 1050 2189 809 
Q 2034 569 1861 378 
Q 1688 188 1472 58 
Q 1256 -72 1038 -72 
L 1031 -72 
z
M 1044 97 
Q 1256 97 1451 323 
Q 1647 550 1794 873 
Q 1941 1197 2052 1536 
Q 2163 1875 2216 2113 
L 909 2113 
Q 809 1709 753 1417 
Q 697 1125 697 844 
Q 697 97 1044 97 
z
M 959 2338 
L 2272 2338 
Q 2341 2619 2381 2808 
Q 2422 2997 2450 3206 
Q 2478 3416 2478 3597 
Q 2478 4347 2138 4347 
Q 1731 4347 1436 3692 
Q 1141 3038 959 2338 
z
" transform="scale(0.015625)"/>
       <path id="Cmsy10-b1" d="M 1600 359 
Q 1269 359 983 526 
Q 697 694 528 984 
Q 359 1275 359 1600 
Q 359 1925 528 2215 
Q 697 2506 983 2673 
Q 1269 2841 1600 2841 
Q 1931 2841 2215 2672 
Q 2500 2503 2667 2214 
Q 2834 1925 2834 1600 
Q 2834 1275 2667 986 
Q 2500 697 2215 528 
Q 1931 359 1600 359 
z
M 1600 616 
Q 2000 616 2289 908 
Q 2578 1200 2578 1600 
Q 2578 1856 2445 2086 
Q 2313 2316 2088 2450 
Q 1863 2584 1600 2584 
Q 1403 2584 1225 2507 
Q 1047 2431 906 2290 
Q 766 2150 691 1973 
Q 616 1797 616 1600 
Q 616 1200 905 908 
Q 1194 616 1600 616 
z
" transform="scale(0.015625)"/>
      </defs>
      <use xlink:href="#TimesNewRomanPSMT-4f" transform="translate(0 0.484375)"/>
      <use xlink:href="#TimesNewRomanPSMT-72" transform="translate(72.216797 0.484375)"/>
      <use xlink:href="#TimesNewRomanPSMT-69" transform="translate(105.517578 0.484375)"/>
      <use xlink:href="#TimesNewRomanPSMT-65" transform="translate(133.300781 0.484375)"/>
      <use xlink:href="#TimesNewRomanPSMT-6e" transform="translate(177.685547 0.484375)"/>
      <use xlink:href="#TimesNewRomanPSMT-74" transform="translate(227.685547 0.484375)"/>
      <use xlink:href="#TimesNewRomanPSMT-61" transform="translate(255.46875 0.484375)"/>
      <use xlink:href="#TimesNewRomanPSMT-74" transform="translate(299.853516 0.484375)"/>
      <use xlink:href="#TimesNewRomanPSMT-69" transform="translate(327.636719 0.484375)"/>
      <use xlink:href="#TimesNewRomanPSMT-6f" transform="translate(355.419922 0.484375)"/>
      <use xlink:href="#TimesNewRomanPSMT-6e" transform="translate(405.419922 0.484375)"/>
      <use xlink:href="#TimesNewRomanPSMT-20" transform="translate(455.419922 0.484375)"/>
      <use xlink:href="#Cmmi10-b5" transform="translate(480.419922 0.484375)"/>
      <use xlink:href="#TimesNewRomanPSMT-20" transform="translate(527.34375 0.484375)"/>
      <use xlink:href="#TimesNewRomanPSMT-5b" transform="translate(552.34375 0.484375)"/>
      <use xlink:href="#Cmsy10-b1" transform="translate(590.108672 38.748438) scale(0.7)"/>
      <use xlink:href="#TimesNewRomanPSMT-5d" transform="translate(631.486016 0.484375)"/>
     </g>
    </g>
   </g>
   <g id="matplotlib.axis_4">
    <g id="ytick_9">
     <g id="line2d_19">
      <g>
       <use xlink:href="#m9e61d71130" x="394.1875" y="235.96" style="stroke: #000000; stroke-width: 0.8"/>
      </g>
     </g>
     <g id="text_22">
      <!-- 0.000 -->
      <g transform="translate(360.1875 240.12625) scale(0.12 -0.12)">
       <use xlink:href="#TimesNewRomanPSMT-30"/>
       <use xlink:href="#TimesNewRomanPSMT-2e" x="50"/>
       <use xlink:href="#TimesNewRomanPSMT-30" x="75"/>
       <use xlink:href="#TimesNewRomanPSMT-30" x="125"/>
       <use xlink:href="#TimesNewRomanPSMT-30" x="175"/>
      </g>
     </g>
    </g>
    <g id="ytick_10">
     <g id="line2d_20">
      <g>
       <use xlink:href="#m9e61d71130" x="394.1875" y="187.857409" style="stroke: #000000; stroke-width: 0.8"/>
      </g>
     </g>
     <g id="text_23">
      <!-- 0.005 -->
      <g transform="translate(360.1875 192.023659) scale(0.12 -0.12)">
       <use xlink:href="#TimesNewRomanPSMT-30"/>
       <use xlink:href="#TimesNewRomanPSMT-2e" x="50"/>
       <use xlink:href="#TimesNewRomanPSMT-30" x="75"/>
       <use xlink:href="#TimesNewRomanPSMT-30" x="125"/>
       <use xlink:href="#TimesNewRomanPSMT-35" x="175"/>
      </g>
     </g>
    </g>
    <g id="ytick_11">
     <g id="line2d_21">
      <g>
       <use xlink:href="#m9e61d71130" x="394.1875" y="139.754818" style="stroke: #000000; stroke-width: 0.8"/>
      </g>
     </g>
     <g id="text_24">
      <!-- 0.010 -->
      <g transform="translate(360.1875 143.921068) scale(0.12 -0.12)">
       <use xlink:href="#TimesNewRomanPSMT-30"/>
       <use xlink:href="#TimesNewRomanPSMT-2e" x="50"/>
       <use xlink:href="#TimesNewRomanPSMT-30" x="75"/>
       <use xlink:href="#TimesNewRomanPSMT-31" x="125"/>
       <use xlink:href="#TimesNewRomanPSMT-30" x="175"/>
      </g>
     </g>
    </g>
    <g id="ytick_12">
     <g id="line2d_22">
      <g>
       <use xlink:href="#m9e61d71130" x="394.1875" y="91.652228" style="stroke: #000000; stroke-width: 0.8"/>
      </g>
     </g>
     <g id="text_25">
      <!-- 0.015 -->
      <g transform="translate(360.1875 95.818478) scale(0.12 -0.12)">
       <use xlink:href="#TimesNewRomanPSMT-30"/>
       <use xlink:href="#TimesNewRomanPSMT-2e" x="50"/>
       <use xlink:href="#TimesNewRomanPSMT-30" x="75"/>
       <use xlink:href="#TimesNewRomanPSMT-31" x="125"/>
       <use xlink:href="#TimesNewRomanPSMT-35" x="175"/>
      </g>
     </g>
    </g>
    <g id="ytick_13">
     <g id="line2d_23">
      <g>
       <use xlink:href="#m9e61d71130" x="394.1875" y="43.549637" style="stroke: #000000; stroke-width: 0.8"/>
      </g>
     </g>
     <g id="text_26">
      <!-- 0.020 -->
      <g transform="translate(360.1875 47.715887) scale(0.12 -0.12)">
       <use xlink:href="#TimesNewRomanPSMT-30"/>
       <use xlink:href="#TimesNewRomanPSMT-2e" x="50"/>
       <use xlink:href="#TimesNewRomanPSMT-30" x="75"/>
       <use xlink:href="#TimesNewRomanPSMT-32" x="125"/>
       <use xlink:href="#TimesNewRomanPSMT-30" x="175"/>
      </g>
     </g>
    </g>
    <g id="text_27">
     <!-- PDF -->
     <g transform="translate(353.192813 137.300625) rotate(-90) scale(0.14 -0.14)">
      <use xlink:href="#TimesNewRomanPSMT-50"/>
      <use xlink:href="#TimesNewRomanPSMT-44" x="55.615234"/>
      <use xlink:href="#TimesNewRomanPSMT-46" x="127.832031"/>
     </g>
    </g>
   </g>
   <g id="line2d_24">
    <path d="M 394.1875 235.96 
L 396.969242 235.919384 
L 399.750985 235.797354 
L 402.532727 235.593354 
L 405.31447 235.306474 
L 408.096212 234.935413 
L 410.877955 234.478509 
L 413.659697 233.933693 
L 416.441439 233.298502 
L 419.223182 232.570063 
L 422.004924 231.745073 
L 424.786667 230.819782 
L 427.568409 229.789979 
L 430.350152 228.650984 
L 433.131894 227.397588 
L 435.913636 226.024058 
L 438.695379 224.524117 
L 441.477121 222.890891 
L 444.258864 221.116909 
L 447.040606 219.194021 
L 449.822348 217.113441 
L 452.604091 214.865649 
L 455.385833 212.440396 
L 458.167576 209.826668 
L 460.949318 207.012634 
L 463.731061 203.985678 
L 466.512803 200.732345 
L 469.294545 197.238347 
L 472.076288 193.488614 
L 474.85803 189.467336 
L 477.639773 185.158068 
L 480.421515 180.543895 
L 483.203258 175.607765 
L 485.985 170.332885 
L 488.766742 164.703407 
L 491.548485 158.705407 
L 494.330227 152.328397 
L 497.11197 145.567458 
L 499.893712 138.426416 
L 502.675455 130.922181 
L 505.457197 123.090936 
L 508.238939 114.996212 
L 511.020682 106.739163 
L 513.802424 98.470321 
L 516.584167 90.400916 
L 519.365909 82.809899 
L 522.147652 76.04011 
L 524.929394 70.476198 
L 527.711136 66.499078 
L 530.492879 64.421538 
L 533.274621 64.421538 
L 536.056364 66.499078 
L 538.838106 70.476198 
L 541.619848 76.04011 
L 544.401591 82.809899 
L 547.183333 90.400916 
L 549.965076 98.470321 
L 552.746818 106.739163 
L 555.528561 114.996212 
L 558.310303 123.090936 
L 561.092045 130.922181 
L 563.873788 138.426416 
L 566.65553 145.567458 
L 569.437273 152.328397 
L 572.219015 158.705407 
L 575.000758 164.703407 
L 577.7825 170.332885 
L 580.564242 175.607765 
L 583.345985 180.543895 
L 586.127727 185.158068 
L 588.90947 189.467336 
L 591.691212 193.488614 
L 594.472955 197.238347 
L 597.254697 200.732345 
L 600.036439 203.985678 
L 602.818182 207.012634 
L 605.599924 209.826668 
L 608.381667 212.440396 
L 611.163409 214.865649 
L 613.945152 217.113441 
L 616.726894 219.194021 
L 619.508636 221.116909 
L 622.290379 222.890891 
L 625.072121 224.524117 
L 627.853864 226.024058 
L 630.635606 227.397588 
L 633.417348 228.650984 
L 636.199091 229.789979 
L 638.980833 230.819782 
L 641.762576 231.745073 
L 644.544318 232.570063 
L 647.326061 233.298502 
L 650.107803 233.933693 
L 652.889545 234.478509 
L 655.671288 234.935413 
L 658.45303 235.306474 
L 661.234773 235.593354 
L 664.016515 235.797354 
L 666.798258 235.919384 
L 669.58 235.96 
" clip-path="url(#p6df21572ab)" style="fill: none; stroke: #000000; stroke-width: 2; stroke-linecap: square"/>
   </g>
   <g id="patch_110">
    <path d="M 394.1875 235.96 
L 394.1875 12.96 
" style="fill: none; stroke: #000000; stroke-width: 0.8; stroke-linejoin: miter; stroke-linecap: square"/>
   </g>
   <g id="patch_111">
    <path d="M 669.58 235.96 
L 669.58 12.96 
" style="fill: none; stroke: #000000; stroke-width: 0.8; stroke-linejoin: miter; stroke-linecap: square"/>
   </g>
   <g id="patch_112">
    <path d="M 394.1875 235.96 
L 669.58 235.96 
" style="fill: none; stroke: #000000; stroke-width: 0.8; stroke-linejoin: miter; stroke-linecap: square"/>
   </g>
   <g id="patch_113">
    <path d="M 394.1875 12.96 
L 669.58 12.96 
" style="fill: none; stroke: #000000; stroke-width: 0.8; stroke-linejoin: miter; stroke-linecap: square"/>
   </g>
   <g id="legend_2">
    <g id="patch_114">
     <path d="M 402.5875 75.549375 
L 521.614375 75.549375 
Q 524.014375 75.549375 524.014375 73.149375 
L 524.014375 21.36 
Q 524.014375 18.96 521.614375 18.96 
L 402.5875 18.96 
Q 400.1875 18.96 400.1875 21.36 
L 400.1875 73.149375 
Q 400.1875 75.549375 402.5875 75.549375 
z
" style="fill: #ffffff; opacity: 0.8; stroke: #cccccc; stroke-linejoin: miter"/>
    </g>
    <g id="patch_115">
     <path d="M 404.9875 32.76 
L 428.9875 32.76 
L 428.9875 24.36 
L 404.9875 24.36 
z
" style="fill: #66cdaa; stroke: #66cdaa; stroke-width: 2; stroke-linejoin: miter"/>
    </g>
    <g id="text_28">
     <!-- Numer. $p(\theta)$ -->
     <g transform="translate(438.5875 32.76) scale(0.12 -0.12)">
      <use xlink:href="#TimesNewRomanPSMT-4e"/>
      <use xlink:href="#TimesNewRomanPSMT-75" transform="translate(72.216797 0)"/>
      <use xlink:href="#TimesNewRomanPSMT-6d" transform="translate(122.216797 0)"/>
      <use xlink:href="#TimesNewRomanPSMT-65" transform="translate(200 0)"/>
      <use xlink:href="#TimesNewRomanPSMT-72" transform="translate(244.384766 0)"/>
      <use xlink:href="#TimesNewRomanPSMT-2e" transform="translate(277.685547 0)"/>
      <use xlink:href="#TimesNewRomanPSMT-20" transform="translate(302.685547 0)"/>
      <use xlink:href="#Cmmi10-70" transform="translate(327.685547 0)"/>
      <use xlink:href="#Cmr10-28" transform="translate(377.978516 0)"/>
      <use xlink:href="#Cmmi10-b5" transform="translate(416.796875 0)"/>
      <use xlink:href="#Cmr10-29" transform="translate(463.720703 0)"/>
     </g>
    </g>
    <g id="line2d_25">
     <path d="M 404.9875 46.56 
L 416.9875 46.56 
L 428.9875 46.56 
" style="fill: none; stroke: #000000; stroke-width: 2; stroke-linecap: square"/>
    </g>
    <g id="text_29">
     <!-- Analyt. $p(\theta)$ -->
     <g transform="translate(438.5875 50.76) scale(0.12 -0.12)">
      <use xlink:href="#TimesNewRomanPSMT-41"/>
      <use xlink:href="#TimesNewRomanPSMT-6e" transform="translate(72.216797 0)"/>
      <use xlink:href="#TimesNewRomanPSMT-61" transform="translate(122.216797 0)"/>
      <use xlink:href="#TimesNewRomanPSMT-6c" transform="translate(166.601562 0)"/>
      <use xlink:href="#TimesNewRomanPSMT-79" transform="translate(194.384766 0)"/>
      <use xlink:href="#TimesNewRomanPSMT-74" transform="translate(244.384766 0)"/>
      <use xlink:href="#TimesNewRomanPSMT-2e" transform="translate(272.167969 0)"/>
      <use xlink:href="#TimesNewRomanPSMT-20" transform="translate(297.167969 0)"/>
      <use xlink:href="#Cmmi10-70" transform="translate(322.167969 0)"/>
      <use xlink:href="#Cmr10-28" transform="translate(372.460938 0)"/>
      <use xlink:href="#Cmmi10-b5" transform="translate(411.279297 0)"/>
      <use xlink:href="#Cmr10-29" transform="translate(458.203125 0)"/>
     </g>
    </g>
    <g id="line2d_26">
     <path d="M 404.9875 63.96 
L 410.9875 63.96 
L 410.9875 63.96 
L 422.9875 63.96 
L 422.9875 63.96 
L 428.9875 63.96 
" style="fill: none; stroke: #9400d3; stroke-width: 2; stroke-linecap: square"/>
    </g>
    <g id="text_30">
     <!-- Verweij et al. [1] -->
     <g transform="translate(438.5875 68.16) scale(0.12 -0.12)">
      <defs>
       <path id="TimesNewRomanPSMT-56" d="M 4544 4238 
L 4544 4122 
Q 4319 4081 4203 3978 
Q 4038 3825 3909 3509 
L 2431 -97 
L 2316 -97 
L 728 3556 
Q 606 3838 556 3900 
Q 478 3997 364 4051 
Q 250 4106 56 4122 
L 56 4238 
L 1788 4238 
L 1788 4122 
Q 1494 4094 1406 4022 
Q 1319 3950 1319 3838 
Q 1319 3681 1463 3350 
L 2541 866 
L 3541 3319 
Q 3688 3681 3688 3822 
Q 3688 3913 3597 3995 
Q 3506 4078 3291 4113 
Q 3275 4116 3238 4122 
L 3238 4238 
L 4544 4238 
z
" transform="scale(0.015625)"/>
       <path id="TimesNewRomanPSMT-77" d="M 41 2863 
L 1241 2863 
L 1241 2747 
Q 1075 2734 1023 2687 
Q 972 2641 972 2553 
Q 972 2456 1025 2319 
L 1638 672 
L 2253 2013 
L 2091 2434 
Q 2016 2622 1894 2694 
Q 1825 2738 1638 2747 
L 1638 2863 
L 3000 2863 
L 3000 2747 
Q 2775 2738 2681 2666 
Q 2619 2616 2619 2506 
Q 2619 2444 2644 2378 
L 3294 734 
L 3897 2319 
Q 3959 2488 3959 2588 
Q 3959 2647 3898 2694 
Q 3838 2741 3659 2747 
L 3659 2863 
L 4563 2863 
L 4563 2747 
Q 4291 2706 4163 2378 
L 3206 -88 
L 3078 -88 
L 2363 1741 
L 1528 -88 
L 1413 -88 
L 494 2319 
Q 403 2547 315 2626 
Q 228 2706 41 2747 
L 41 2863 
z
" transform="scale(0.015625)"/>
       <path id="TimesNewRomanPSMT-6a" d="M 925 4447 
Q 1059 4447 1153 4353 
Q 1247 4259 1247 4125 
Q 1247 3994 1153 3900 
Q 1059 3806 925 3806 
Q 794 3806 700 3900 
Q 606 3994 606 4125 
Q 606 4259 700 4353 
Q 794 4447 925 4447 
z
M 1194 2947 
L 1194 66 
Q 1194 -669 881 -1025 
Q 569 -1381 69 -1381 
Q -216 -1381 -353 -1278 
Q -491 -1175 -491 -1066 
Q -491 -956 -414 -878 
Q -338 -800 -234 -800 
Q -153 -800 -69 -841 
Q -16 -863 136 -998 
Q 288 -1134 391 -1134 
Q 466 -1134 537 -1076 
Q 609 -1019 643 -883 
Q 678 -747 678 -294 
L 678 1744 
Q 678 2216 650 2350 
Q 628 2453 581 2492 
Q 534 2531 453 2531 
Q 366 2531 241 2484 
L 197 2597 
L 1059 2947 
L 1194 2947 
z
" transform="scale(0.015625)"/>
      </defs>
      <use xlink:href="#TimesNewRomanPSMT-56"/>
      <use xlink:href="#TimesNewRomanPSMT-65" x="61.091797"/>
      <use xlink:href="#TimesNewRomanPSMT-72" x="105.476562"/>
      <use xlink:href="#TimesNewRomanPSMT-77" x="138.777344"/>
      <use xlink:href="#TimesNewRomanPSMT-65" x="210.994141"/>
      <use xlink:href="#TimesNewRomanPSMT-69" x="255.378906"/>
      <use xlink:href="#TimesNewRomanPSMT-6a" x="283.162109"/>
      <use xlink:href="#TimesNewRomanPSMT-20" x="310.945312"/>
      <use xlink:href="#TimesNewRomanPSMT-65" x="335.945312"/>
      <use xlink:href="#TimesNewRomanPSMT-74" x="380.330078"/>
      <use xlink:href="#TimesNewRomanPSMT-20" x="408.113281"/>
      <use xlink:href="#TimesNewRomanPSMT-61" x="433.113281"/>
      <use xlink:href="#TimesNewRomanPSMT-6c" x="477.498047"/>
      <use xlink:href="#TimesNewRomanPSMT-2e" x="505.28125"/>
      <use xlink:href="#TimesNewRomanPSMT-20" x="530.28125"/>
      <use xlink:href="#TimesNewRomanPSMT-5b" x="555.28125"/>
      <use xlink:href="#TimesNewRomanPSMT-31" x="588.582031"/>
      <use xlink:href="#TimesNewRomanPSMT-5d" x="638.582031"/>
     </g>
    </g>
   </g>
  </g>
  <g id="axes_3">
   <g id="matplotlib.axis_5">
    <g id="ytick_14">
     <g id="line2d_27">
      <defs>
       <path id="mc627882a2f" d="M 0 0 
L 3.5 0 
" style="stroke: #000000; stroke-width: 0.8"/>
      </defs>
      <g>
       <use xlink:href="#mc627882a2f" x="669.58" y="235.96" style="stroke: #000000; stroke-width: 0.8"/>
      </g>
     </g>
     <g id="text_31">
      <!-- 0.0 -->
      <g transform="translate(676.58 240.12625) scale(0.12 -0.12)">
       <use xlink:href="#TimesNewRomanPSMT-30"/>
       <use xlink:href="#TimesNewRomanPSMT-2e" x="50"/>
       <use xlink:href="#TimesNewRomanPSMT-30" x="75"/>
      </g>
     </g>
    </g>
    <g id="ytick_15">
     <g id="line2d_28">
      <g>
       <use xlink:href="#mc627882a2f" x="669.58" y="201.652308" style="stroke: #000000; stroke-width: 0.8"/>
      </g>
     </g>
     <g id="text_32">
      <!-- 0.2 -->
      <g transform="translate(676.58 205.818558) scale(0.12 -0.12)">
       <use xlink:href="#TimesNewRomanPSMT-30"/>
       <use xlink:href="#TimesNewRomanPSMT-2e" x="50"/>
       <use xlink:href="#TimesNewRomanPSMT-32" x="75"/>
      </g>
     </g>
    </g>
    <g id="ytick_16">
     <g id="line2d_29">
      <g>
       <use xlink:href="#mc627882a2f" x="669.58" y="167.344615" style="stroke: #000000; stroke-width: 0.8"/>
      </g>
     </g>
     <g id="text_33">
      <!-- 0.4 -->
      <g transform="translate(676.58 171.510865) scale(0.12 -0.12)">
       <use xlink:href="#TimesNewRomanPSMT-30"/>
       <use xlink:href="#TimesNewRomanPSMT-2e" x="50"/>
       <use xlink:href="#TimesNewRomanPSMT-34" x="75"/>
      </g>
     </g>
    </g>
    <g id="ytick_17">
     <g id="line2d_30">
      <g>
       <use xlink:href="#mc627882a2f" x="669.58" y="133.036923" style="stroke: #000000; stroke-width: 0.8"/>
      </g>
     </g>
     <g id="text_34">
      <!-- 0.6 -->
      <g transform="translate(676.58 137.203173) scale(0.12 -0.12)">
       <use xlink:href="#TimesNewRomanPSMT-30"/>
       <use xlink:href="#TimesNewRomanPSMT-2e" x="50"/>
       <use xlink:href="#TimesNewRomanPSMT-36" x="75"/>
      </g>
     </g>
    </g>
    <g id="ytick_18">
     <g id="line2d_31">
      <g>
       <use xlink:href="#mc627882a2f" x="669.58" y="98.729231" style="stroke: #000000; stroke-width: 0.8"/>
      </g>
     </g>
     <g id="text_35">
      <!-- 0.8 -->
      <g transform="translate(676.58 102.895481) scale(0.12 -0.12)">
       <use xlink:href="#TimesNewRomanPSMT-30"/>
       <use xlink:href="#TimesNewRomanPSMT-2e" x="50"/>
       <use xlink:href="#TimesNewRomanPSMT-38" x="75"/>
      </g>
     </g>
    </g>
    <g id="ytick_19">
     <g id="line2d_32">
      <g>
       <use xlink:href="#mc627882a2f" x="669.58" y="64.421538" style="stroke: #000000; stroke-width: 0.8"/>
      </g>
     </g>
     <g id="text_36">
      <!-- 1.0 -->
      <g transform="translate(676.58 68.587788) scale(0.12 -0.12)">
       <use xlink:href="#TimesNewRomanPSMT-31"/>
       <use xlink:href="#TimesNewRomanPSMT-2e" x="50"/>
       <use xlink:href="#TimesNewRomanPSMT-30" x="75"/>
      </g>
     </g>
    </g>
    <g id="ytick_20">
     <g id="line2d_33">
      <g>
       <use xlink:href="#mc627882a2f" x="669.58" y="30.113846" style="stroke: #000000; stroke-width: 0.8"/>
      </g>
     </g>
     <g id="text_37">
      <!-- 1.2 -->
      <g transform="translate(676.58 34.280096) scale(0.12 -0.12)">
       <use xlink:href="#TimesNewRomanPSMT-31"/>
       <use xlink:href="#TimesNewRomanPSMT-2e" x="50"/>
       <use xlink:href="#TimesNewRomanPSMT-32" x="75"/>
      </g>
     </g>
    </g>
    <g id="text_38">
     <!-- Experimental PDF -->
     <g transform="translate(698.146875 79.633438) rotate(-270) scale(0.12 -0.12)">
      <defs>
       <path id="TimesNewRomanPSMT-45" d="M 1338 4006 
L 1338 2331 
L 2269 2331 
Q 2631 2331 2753 2441 
Q 2916 2584 2934 2947 
L 3050 2947 
L 3050 1472 
L 2934 1472 
Q 2891 1781 2847 1869 
Q 2791 1978 2662 2040 
Q 2534 2103 2269 2103 
L 1338 2103 
L 1338 706 
Q 1338 425 1363 364 
Q 1388 303 1450 267 
Q 1513 231 1688 231 
L 2406 231 
Q 2766 231 2928 281 
Q 3091 331 3241 478 
Q 3434 672 3638 1063 
L 3763 1063 
L 3397 0 
L 131 0 
L 131 116 
L 281 116 
Q 431 116 566 188 
Q 666 238 702 338 
Q 738 438 738 747 
L 738 3500 
Q 738 3903 656 3997 
Q 544 4122 281 4122 
L 131 4122 
L 131 4238 
L 3397 4238 
L 3444 3309 
L 3322 3309 
Q 3256 3644 3176 3769 
Q 3097 3894 2941 3959 
Q 2816 4006 2500 4006 
L 1338 4006 
z
" transform="scale(0.015625)"/>
       <path id="TimesNewRomanPSMT-78" d="M 84 2863 
L 1431 2863 
L 1431 2747 
Q 1303 2747 1251 2703 
Q 1200 2659 1200 2588 
Q 1200 2513 1309 2356 
Q 1344 2306 1413 2200 
L 1616 1875 
L 1850 2200 
Q 2075 2509 2075 2591 
Q 2075 2656 2022 2701 
Q 1969 2747 1850 2747 
L 1850 2863 
L 2819 2863 
L 2819 2747 
Q 2666 2738 2553 2663 
Q 2400 2556 2134 2200 
L 1744 1678 
L 2456 653 
Q 2719 275 2831 198 
Q 2944 122 3122 113 
L 3122 0 
L 1772 0 
L 1772 113 
Q 1913 113 1991 175 
Q 2050 219 2050 291 
Q 2050 363 1850 653 
L 1431 1266 
L 972 653 
Q 759 369 759 316 
Q 759 241 829 180 
Q 900 119 1041 113 
L 1041 0 
L 106 0 
L 106 113 
Q 219 128 303 191 
Q 422 281 703 653 
L 1303 1450 
L 759 2238 
Q 528 2575 401 2661 
Q 275 2747 84 2747 
L 84 2863 
z
" transform="scale(0.015625)"/>
       <path id="TimesNewRomanPSMT-70" d="M -6 2578 
L 875 2934 
L 994 2934 
L 994 2266 
Q 1216 2644 1439 2795 
Q 1663 2947 1909 2947 
Q 2341 2947 2628 2609 
Q 2981 2197 2981 1534 
Q 2981 794 2556 309 
Q 2206 -88 1675 -88 
Q 1444 -88 1275 -22 
Q 1150 25 994 166 
L 994 -706 
Q 994 -1000 1030 -1079 
Q 1066 -1159 1155 -1206 
Q 1244 -1253 1478 -1253 
L 1478 -1369 
L -22 -1369 
L -22 -1253 
L 56 -1253 
Q 228 -1256 350 -1188 
Q 409 -1153 442 -1076 
Q 475 -1000 475 -688 
L 475 2019 
Q 475 2297 450 2372 
Q 425 2447 370 2484 
Q 316 2522 222 2522 
Q 147 2522 31 2478 
L -6 2578 
z
M 994 2081 
L 994 1013 
Q 994 666 1022 556 
Q 1066 375 1236 237 
Q 1406 100 1666 100 
Q 1978 100 2172 344 
Q 2425 663 2425 1241 
Q 2425 1897 2138 2250 
Q 1938 2494 1663 2494 
Q 1513 2494 1366 2419 
Q 1253 2363 994 2081 
z
" transform="scale(0.015625)"/>
      </defs>
      <use xlink:href="#TimesNewRomanPSMT-45"/>
      <use xlink:href="#TimesNewRomanPSMT-78" x="61.083984"/>
      <use xlink:href="#TimesNewRomanPSMT-70" x="111.083984"/>
      <use xlink:href="#TimesNewRomanPSMT-65" x="161.083984"/>
      <use xlink:href="#TimesNewRomanPSMT-72" x="205.46875"/>
      <use xlink:href="#TimesNewRomanPSMT-69" x="238.769531"/>
      <use xlink:href="#TimesNewRomanPSMT-6d" x="266.552734"/>
      <use xlink:href="#TimesNewRomanPSMT-65" x="344.335938"/>
      <use xlink:href="#TimesNewRomanPSMT-6e" x="388.720703"/>
      <use xlink:href="#TimesNewRomanPSMT-74" x="438.720703"/>
      <use xlink:href="#TimesNewRomanPSMT-61" x="466.503906"/>
      <use xlink:href="#TimesNewRomanPSMT-6c" x="510.888672"/>
      <use xlink:href="#TimesNewRomanPSMT-20" x="538.671875"/>
      <use xlink:href="#TimesNewRomanPSMT-50" x="563.671875"/>
      <use xlink:href="#TimesNewRomanPSMT-44" x="619.287109"/>
      <use xlink:href="#TimesNewRomanPSMT-46" x="691.503906"/>
     </g>
    </g>
   </g>
   <g id="line2d_34">
    <path d="M 396.456816 233.009707 
L 398.103901 233.009707 
L 398.103901 232.588237 
L 401.581079 232.588237 
L 401.581079 231.745296 
L 405.058257 231.745296 
L 405.058257 230.902355 
L 408.352425 230.902355 
L 408.352425 227.952062 
L 411.463585 227.952062 
L 411.463585 233.009707 
L 414.574744 233.009707 
L 414.574744 230.902355 
L 417.868912 230.902355 
L 417.868912 227.952062 
L 420.980072 227.952062 
L 420.980072 230.480885 
L 424.091231 230.480885 
L 424.091231 229.216473 
L 427.019381 229.216473 
L 427.019381 227.109121 
L 429.764522 227.109121 
L 429.764522 226.687651 
L 432.875681 226.687651 
L 432.875681 227.530592 
L 436.169849 227.530592 
L 436.169849 227.952062 
L 439.464018 227.952062 
L 439.464018 225.84471 
L 442.575177 225.84471 
L 442.575177 225.423239 
L 445.503327 225.423239 
L 445.503327 226.26618 
L 448.431477 226.26618 
L 448.431477 225.423239 
L 451.542637 225.423239 
L 451.542637 224.580299 
L 454.653796 224.580299 
L 454.653796 225.84471 
L 457.764955 225.84471 
L 457.764955 223.737358 
L 460.876114 223.737358 
L 460.876114 227.952062 
L 463.804264 227.952062 
L 463.804264 221.208535 
L 466.915424 221.208535 
L 466.915424 218.258242 
L 470.026583 218.258242 
L 470.026583 213.200597 
L 472.954733 213.200597 
L 472.954733 214.043538 
L 475.882883 214.043538 
L 475.882883 215.307949 
L 478.445014 215.307949 
L 478.445014 209.828834 
L 481.190155 209.828834 
L 481.190155 202.663837 
L 484.301314 202.663837 
L 484.301314 199.292073 
L 487.229464 199.292073 
L 487.229464 187.912372 
L 490.340623 187.912372 
L 490.340623 166.838851 
L 497.294979 166.838851 
L 497.294979 208.564423 
L 500.589148 208.564423 
L 500.589148 230.902355 
L 503.883316 230.902355 
L 503.883316 235.117059 
L 507.232388 235.117059 
L 507.232388 235.96 
L 556.718122 235.96 
L 556.718122 235.117059 
L 560.067193 235.117059 
L 560.067193 220.787065 
L 563.178352 220.787065 
L 563.178352 176.1112 
L 566.83854 176.1112 
L 566.83854 64.421538 
L 570.498727 64.421538 
L 570.498727 85.91653 
L 573.792896 85.91653 
L 573.792896 134.807099 
L 576.904055 134.807099 
L 576.904055 162.202676 
L 579.832205 162.202676 
L 579.832205 174.425318 
L 582.943364 174.425318 
L 582.943364 179.061493 
L 586.054524 179.061493 
L 586.054524 182.011786 
L 588.982673 182.011786 
L 588.982673 194.655899 
L 592.093833 194.655899 
L 592.093833 197.606192 
L 595.204992 197.606192 
L 595.204992 201.399425 
L 598.133142 201.399425 
L 598.133142 209.407363 
L 601.244301 209.407363 
L 601.244301 207.300011 
L 604.355461 207.300011 
L 604.355461 212.779127 
L 607.46662 212.779127 
L 607.46662 209.407363 
L 610.577779 209.407363 
L 610.577779 212.779127 
L 613.505929 212.779127 
L 613.505929 215.307949 
L 616.617088 215.307949 
L 616.617088 217.836772 
L 619.728248 217.836772 
L 619.728248 218.679713 
L 622.656398 218.679713 
L 622.656398 220.365594 
L 625.584547 220.365594 
L 625.584547 224.158828 
L 628.695707 224.158828 
L 628.695707 225.001769 
L 631.806866 225.001769 
L 631.806866 226.687651 
L 634.918025 226.687651 
L 634.918025 228.795003 
L 638.029185 228.795003 
L 638.029185 227.952062 
L 640.957335 227.952062 
L 640.957335 228.373532 
L 644.068494 228.373532 
L 644.068494 228.795003 
L 647.179653 228.795003 
L 647.179653 231.323825 
L 650.107803 231.323825 
L 650.107803 228.373532 
L 653.218962 228.373532 
L 653.218962 227.530592 
L 656.330122 227.530592 
L 656.330122 228.373532 
L 661.820403 228.373532 
L 661.820403 230.480885 
L 664.382534 230.480885 
L 664.382534 229.216473 
L 667.493693 229.216473 
L 667.493693 230.902355 
L 670.238834 230.902355 
L 670.238834 233.431177 
L 671.33689 233.431177 
L 671.33689 233.431177 
" clip-path="url(#p6df21572ab)" style="fill: none; stroke: #9400d3; stroke-width: 2; stroke-linecap: square"/>
   </g>
   <g id="patch_116">
    <path d="M 394.1875 235.96 
L 394.1875 12.96 
" style="fill: none; stroke: #000000; stroke-width: 0.8; stroke-linejoin: miter; stroke-linecap: square"/>
   </g>
   <g id="patch_117">
    <path d="M 669.58 235.96 
L 669.58 12.96 
" style="fill: none; stroke: #000000; stroke-width: 0.8; stroke-linejoin: miter; stroke-linecap: square"/>
   </g>
   <g id="patch_118">
    <path d="M 394.1875 235.96 
L 669.58 235.96 
" style="fill: none; stroke: #000000; stroke-width: 0.8; stroke-linejoin: miter; stroke-linecap: square"/>
   </g>
   <g id="patch_119">
    <path d="M 394.1875 12.96 
L 669.58 12.96 
" style="fill: none; stroke: #000000; stroke-width: 0.8; stroke-linejoin: miter; stroke-linecap: square"/>
   </g>
  </g>
 </g>
 <defs>
  <clipPath id="pea77b1288b">
   <rect x="51.86" y="12.96" width="275.3925" height="223"/>
  </clipPath>
  <clipPath id="p6df21572ab">
   <rect x="394.1875" y="12.96" width="275.3925" height="223"/>
  </clipPath>
 </defs>
</svg>
