<?xml version="1.0" encoding="utf-8" standalone="no"?>
<!DOCTYPE svg PUBLIC "-//W3C//DTD SVG 1.1//EN"
  "http://www.w3.org/Graphics/SVG/1.1/DTD/svg11.dtd">
<svg xmlns:xlink="http://www.w3.org/1999/xlink" width="460.8pt" height="345.6pt" viewBox="0 0 460.8 345.6" xmlns="http://www.w3.org/2000/svg" version="1.1">
 <metadata>
  <rdf:RDF xmlns:dc="http://purl.org/dc/elements/1.1/" xmlns:cc="http://creativecommons.org/ns#" xmlns:rdf="http://www.w3.org/1999/02/22-rdf-syntax-ns#">
   <cc:Work>
    <dc:type rdf:resource="http://purl.org/dc/dcmitype/StillImage"/>
    <dc:date>2025-01-10T16:49:50.123920</dc:date>
    <dc:format>image/svg+xml</dc:format>
    <dc:creator>
     <cc:Agent>
      <dc:title>Matplotlib v3.9.0, https://matplotlib.org/</dc:title>
     </cc:Agent>
    </dc:creator>
   </cc:Work>
  </rdf:RDF>
 </metadata>
 <defs>
  <style type="text/css">*{stroke-linejoin: round; stroke-linecap: butt}</style>
 </defs>
 <g id="figure_1">
  <g id="patch_1">
   <path d="M 0 345.6 
L 460.8 345.6 
L 460.8 0 
L 0 0 
z
" style="fill: #ffffff"/>
  </g>
  <g id="axes_1">
   <g id="patch_2">
    <path d="M 57.6 307.584 
L 414.72 307.584 
L 414.72 41.472 
L 57.6 41.472 
z
" style="fill: #ffffff"/>
   </g>
   <g id="matplotlib.axis_1">
    <g id="xtick_1">
     <g id="line2d_1">
      <defs>
       <path id="m2d134a0937" d="M 0 0 
L 0 3.5 
" style="stroke: #000000; stroke-width: 0.8"/>
      </defs>
      <g>
       <use xlink:href="#m2d134a0937" x="57.6" y="307.584" style="stroke: #000000; stroke-width: 0.8"/>
      </g>
     </g>
     <g id="text_1">
      <!-- $\mathdefault{0.0}$ -->
      <g transform="translate(50.121179 322.88618) scale(0.12 -0.12)">
       <defs>
        <path id="CMR17-30" d="M 2688 2025 
C 2688 2416 2682 3080 2413 3591 
C 2176 4039 1798 4198 1466 4198 
C 1158 4198 768 4058 525 3597 
C 269 3118 243 2524 243 2025 
C 243 1661 250 1106 448 619 
C 723 -39 1216 -128 1466 -128 
C 1760 -128 2208 -7 2470 600 
C 2662 1042 2688 1559 2688 2025 
z
M 1466 -26 
C 1056 -26 813 325 723 812 
C 653 1188 653 1738 653 2096 
C 653 2588 653 2997 736 3387 
C 858 3929 1216 4096 1466 4096 
C 1728 4096 2067 3923 2189 3400 
C 2272 3036 2278 2607 2278 2096 
C 2278 1680 2278 1169 2202 792 
C 2067 95 1690 -26 1466 -26 
z
" transform="scale(0.015625)"/>
        <path id="CMMI12-3a" d="M 1178 307 
C 1178 492 1024 619 870 619 
C 685 619 557 466 557 313 
C 557 128 710 0 864 0 
C 1050 0 1178 153 1178 307 
z
" transform="scale(0.015625)"/>
       </defs>
       <use xlink:href="#CMR17-30" transform="scale(0.996264)"/>
       <use xlink:href="#CMMI12-3a" transform="translate(45.690477 0) scale(0.996264)"/>
       <use xlink:href="#CMR17-30" transform="translate(72.787654 0) scale(0.996264)"/>
      </g>
     </g>
    </g>
    <g id="xtick_2">
     <g id="line2d_2">
      <g>
       <use xlink:href="#m2d134a0937" x="129.024" y="307.584" style="stroke: #000000; stroke-width: 0.8"/>
      </g>
     </g>
     <g id="text_2">
      <!-- $\mathdefault{0.2}$ -->
      <g transform="translate(121.545179 322.88618) scale(0.12 -0.12)">
       <defs>
        <path id="CMR17-32" d="M 2669 989 
L 2554 989 
C 2490 536 2438 459 2413 420 
C 2381 369 1920 369 1830 369 
L 602 369 
C 832 619 1280 1072 1824 1597 
C 2214 1967 2669 2402 2669 3035 
C 2669 3790 2067 4224 1395 4224 
C 691 4224 262 3604 262 3030 
C 262 2780 448 2748 525 2748 
C 589 2748 781 2787 781 3010 
C 781 3207 614 3264 525 3264 
C 486 3264 448 3258 422 3245 
C 544 3790 915 4058 1306 4058 
C 1862 4058 2227 3617 2227 3035 
C 2227 2479 1901 2000 1536 1584 
L 262 146 
L 262 0 
L 2515 0 
L 2669 989 
z
" transform="scale(0.015625)"/>
       </defs>
       <use xlink:href="#CMR17-30" transform="scale(0.996264)"/>
       <use xlink:href="#CMMI12-3a" transform="translate(45.690477 0) scale(0.996264)"/>
       <use xlink:href="#CMR17-32" transform="translate(72.787654 0) scale(0.996264)"/>
      </g>
     </g>
    </g>
    <g id="xtick_3">
     <g id="line2d_3">
      <g>
       <use xlink:href="#m2d134a0937" x="200.448" y="307.584" style="stroke: #000000; stroke-width: 0.8"/>
      </g>
     </g>
     <g id="text_3">
      <!-- $\mathdefault{0.4}$ -->
      <g transform="translate(192.969179 322.88618) scale(0.12 -0.12)">
       <defs>
        <path id="CMR17-34" d="M 2150 4122 
C 2150 4256 2144 4256 2029 4256 
L 128 1254 
L 128 1088 
L 1779 1088 
L 1779 457 
C 1779 224 1766 160 1318 160 
L 1197 160 
L 1197 0 
C 1402 0 1747 0 1965 0 
C 2182 0 2528 0 2733 0 
L 2733 160 
L 2611 160 
C 2163 160 2150 224 2150 457 
L 2150 1088 
L 2803 1088 
L 2803 1254 
L 2150 1254 
L 2150 4122 
z
M 1798 3703 
L 1798 1254 
L 256 1254 
L 1798 3703 
z
" transform="scale(0.015625)"/>
       </defs>
       <use xlink:href="#CMR17-30" transform="scale(0.996264)"/>
       <use xlink:href="#CMMI12-3a" transform="translate(45.690477 0) scale(0.996264)"/>
       <use xlink:href="#CMR17-34" transform="translate(72.787654 0) scale(0.996264)"/>
      </g>
     </g>
    </g>
    <g id="xtick_4">
     <g id="line2d_4">
      <g>
       <use xlink:href="#m2d134a0937" x="271.872" y="307.584" style="stroke: #000000; stroke-width: 0.8"/>
      </g>
     </g>
     <g id="text_4">
      <!-- $\mathdefault{0.6}$ -->
      <g transform="translate(264.393179 322.88618) scale(0.12 -0.12)">
       <defs>
        <path id="CMR17-36" d="M 678 2176 
C 678 3690 1395 4032 1811 4032 
C 1946 4032 2272 4009 2400 3776 
C 2298 3776 2106 3776 2106 3553 
C 2106 3381 2246 3323 2336 3323 
C 2394 3323 2566 3348 2566 3560 
C 2566 3954 2246 4179 1805 4179 
C 1043 4179 243 3390 243 1984 
C 243 253 966 -128 1478 -128 
C 2099 -128 2688 427 2688 1283 
C 2688 2081 2170 2662 1517 2662 
C 1126 2662 838 2407 678 1960 
L 678 2176 
z
M 1478 25 
C 691 25 691 1200 691 1436 
C 691 1896 909 2560 1504 2560 
C 1613 2560 1926 2560 2138 2120 
C 2253 1870 2253 1609 2253 1289 
C 2253 944 2253 690 2118 434 
C 1978 171 1773 25 1478 25 
z
" transform="scale(0.015625)"/>
       </defs>
       <use xlink:href="#CMR17-30" transform="scale(0.996264)"/>
       <use xlink:href="#CMMI12-3a" transform="translate(45.690477 0) scale(0.996264)"/>
       <use xlink:href="#CMR17-36" transform="translate(72.787654 0) scale(0.996264)"/>
      </g>
     </g>
    </g>
    <g id="xtick_5">
     <g id="line2d_5">
      <g>
       <use xlink:href="#m2d134a0937" x="343.296" y="307.584" style="stroke: #000000; stroke-width: 0.8"/>
      </g>
     </g>
     <g id="text_5">
      <!-- $\mathdefault{0.8}$ -->
      <g transform="translate(335.817179 322.88618) scale(0.12 -0.12)">
       <defs>
        <path id="CMR17-38" d="M 1741 2264 
C 2144 2467 2554 2773 2554 3263 
C 2554 3841 1990 4179 1472 4179 
C 890 4179 378 3759 378 3180 
C 378 3021 416 2747 666 2505 
C 730 2442 998 2251 1171 2130 
C 883 1983 211 1634 211 934 
C 211 279 838 -128 1459 -128 
C 2144 -128 2720 362 2720 1010 
C 2720 1590 2330 1857 2074 2029 
L 1741 2264 
z
M 902 2822 
C 851 2854 595 3051 595 3351 
C 595 3739 998 4032 1459 4032 
C 1965 4032 2336 3676 2336 3262 
C 2336 2669 1670 2331 1638 2331 
C 1632 2331 1626 2331 1574 2370 
L 902 2822 
z
M 2080 1519 
C 2176 1449 2483 1240 2483 851 
C 2483 381 2010 25 1472 25 
C 890 25 448 438 448 940 
C 448 1443 838 1862 1280 2060 
L 2080 1519 
z
" transform="scale(0.015625)"/>
       </defs>
       <use xlink:href="#CMR17-30" transform="scale(0.996264)"/>
       <use xlink:href="#CMMI12-3a" transform="translate(45.690477 0) scale(0.996264)"/>
       <use xlink:href="#CMR17-38" transform="translate(72.787654 0) scale(0.996264)"/>
      </g>
     </g>
    </g>
    <g id="xtick_6">
     <g id="line2d_6">
      <g>
       <use xlink:href="#m2d134a0937" x="414.72" y="307.584" style="stroke: #000000; stroke-width: 0.8"/>
      </g>
     </g>
     <g id="text_6">
      <!-- $\mathdefault{1.0}$ -->
      <g transform="translate(407.241179 322.88618) scale(0.12 -0.12)">
       <defs>
        <path id="CMR17-31" d="M 1702 4058 
C 1702 4192 1696 4192 1606 4192 
C 1357 3916 979 3827 621 3827 
C 602 3827 570 3827 563 3808 
C 557 3795 557 3782 557 3648 
C 755 3648 1088 3686 1344 3839 
L 1344 461 
C 1344 236 1331 160 781 160 
L 589 160 
L 589 0 
C 896 0 1216 0 1523 0 
C 1830 0 2150 0 2458 0 
L 2458 160 
L 2266 160 
C 1715 160 1702 230 1702 458 
L 1702 4058 
z
" transform="scale(0.015625)"/>
       </defs>
       <use xlink:href="#CMR17-31" transform="scale(0.996264)"/>
       <use xlink:href="#CMMI12-3a" transform="translate(45.690477 0) scale(0.996264)"/>
       <use xlink:href="#CMR17-30" transform="translate(72.787654 0) scale(0.996264)"/>
      </g>
     </g>
    </g>
    <g id="text_7">
     <!-- $t=a/h_{\textrm{c.m.}}$ -->
     <g transform="translate(201.06027 339.671548) scale(0.14 -0.14)">
      <defs>
       <path id="CMMI12-74" d="M 1286 2566 
L 1875 2566 
C 1997 2566 2061 2566 2061 2681 
C 2061 2752 2022 2752 1894 2752 
L 1331 2752 
L 1568 3692 
C 1594 3781 1594 3794 1594 3840 
C 1594 3943 1510 4000 1427 4000 
C 1376 4000 1229 3981 1178 3775 
L 928 2752 
L 326 2752 
C 198 2752 141 2752 141 2630 
C 141 2566 186 2566 307 2566 
L 877 2566 
L 454 881 
C 403 658 384 594 384 511 
C 384 211 595 -64 954 -64 
C 1600 -64 1946 868 1946 912 
C 1946 951 1920 970 1882 970 
C 1869 970 1843 970 1830 944 
C 1824 938 1818 931 1773 829 
C 1638 511 1344 64 973 64 
C 781 64 768 224 768 364 
C 768 370 768 492 787 568 
L 1286 2566 
z
" transform="scale(0.015625)"/>
       <path id="CMR17-3d" d="M 4115 2017 
C 4211 2017 4307 2017 4307 2125 
C 4307 2240 4198 2240 4090 2240 
L 512 2240 
C 403 2240 294 2240 294 2125 
C 294 2017 390 2017 486 2017 
L 4115 2017 
z
M 4090 896 
C 4198 896 4307 896 4307 1011 
C 4307 1119 4211 1119 4115 1119 
L 486 1119 
C 390 1119 294 1119 294 1011 
C 294 896 403 896 512 896 
L 4090 896 
z
" transform="scale(0.015625)"/>
       <path id="CMMI12-61" d="M 1926 760 
C 1894 651 1894 639 1805 517 
C 1664 338 1382 64 1082 64 
C 819 64 672 300 672 677 
C 672 1028 870 1743 992 2012 
C 1210 2459 1510 2689 1760 2689 
C 2182 2689 2266 2165 2266 2114 
C 2266 2108 2246 2024 2240 2012 
L 1926 760 
z
M 2336 2395 
C 2266 2561 2093 2816 1760 2816 
C 1037 2816 256 1884 256 939 
C 256 307 627 -64 1062 -64 
C 1414 -64 1715 211 1894 422 
C 1958 45 2259 -64 2451 -64 
C 2643 -64 2797 51 2912 281 
C 3014 498 3104 888 3104 913 
C 3104 945 3078 971 3040 971 
C 2982 971 2976 939 2950 843 
C 2854 466 2733 64 2470 64 
C 2285 64 2272 230 2272 358 
C 2272 505 2291 575 2349 824 
C 2394 984 2426 1124 2477 1309 
C 2714 2267 2771 2497 2771 2535 
C 2771 2625 2701 2695 2605 2695 
C 2400 2695 2349 2472 2336 2395 
z
" transform="scale(0.015625)"/>
       <path id="CMMI12-3d" d="M 2746 4562 
C 2746 4569 2784 4666 2784 4678 
C 2784 4755 2720 4800 2669 4800 
C 2637 4800 2579 4800 2528 4659 
L 384 -1363 
C 384 -1370 346 -1465 346 -1478 
C 346 -1555 410 -1600 461 -1600 
C 499 -1600 557 -1593 602 -1459 
L 2746 4562 
z
" transform="scale(0.015625)"/>
       <path id="CMMI12-68" d="M 1798 4257 
C 1805 4283 1818 4321 1818 4352 
C 1818 4416 1754 4416 1741 4416 
C 1734 4416 1421 4388 1389 4380 
C 1280 4373 1184 4358 1069 4358 
C 909 4345 864 4339 864 4224 
C 864 4160 915 4160 1005 4160 
C 1318 4160 1325 4103 1325 4040 
C 1325 4002 1312 3951 1306 3932 
L 378 248 
C 352 152 352 140 352 101 
C 352 -38 461 -64 525 -64 
C 634 -64 717 19 749 89 
L 1037 1245 
C 1069 1386 1107 1520 1139 1660 
C 1210 1929 1210 1935 1331 2120 
C 1453 2305 1741 2689 2234 2689 
C 2490 2689 2579 2497 2579 2242 
C 2579 1884 2330 1188 2189 805 
C 2131 651 2099 568 2099 453 
C 2099 166 2298 -64 2605 -64 
C 3200 -64 3424 875 3424 913 
C 3424 945 3398 971 3360 971 
C 3302 971 3296 952 3264 843 
C 3117 332 2880 64 2624 64 
C 2560 64 2458 64 2458 269 
C 2458 436 2534 640 2560 710 
C 2675 1018 2963 1773 2963 2145 
C 2963 2528 2739 2816 2253 2816 
C 1888 2816 1568 2644 1306 2312 
L 1798 4257 
z
" transform="scale(0.015625)"/>
       <path id="CMR17-63" d="M 2234 2240 
C 2112 2240 1933 2240 1933 2017 
C 1933 1838 2080 1787 2163 1787 
C 2208 1787 2394 1807 2394 2024 
C 2394 2467 1958 2803 1466 2803 
C 787 2803 211 2178 211 1363 
C 211 516 813 -64 1466 -64 
C 2259 -64 2458 677 2458 748 
C 2458 774 2451 793 2406 793 
C 2362 793 2355 787 2330 703 
C 2163 180 1798 51 1523 51 
C 1114 51 621 427 621 1369 
C 621 2338 1094 2688 1472 2688 
C 1722 2688 2093 2573 2234 2240 
z
" transform="scale(0.015625)"/>
       <path id="CMR17-2e" d="M 1062 261 
C 1062 420 934 522 800 522 
C 672 522 538 420 538 261 
C 538 102 666 0 800 0 
C 928 0 1062 102 1062 261 
z
" transform="scale(0.015625)"/>
       <path id="CMR17-6d" d="M 4326 1933 
C 4326 2252 4269 2790 3507 2790 
C 3072 2790 2771 2496 2656 2151 
L 2650 2151 
C 2573 2676 2195 2790 1837 2790 
C 1331 2790 1069 2400 973 2144 
L 966 2144 
L 966 2790 
L 211 2720 
L 211 2554 
C 589 2554 646 2515 646 2208 
L 646 428 
C 646 184 621 153 211 153 
L 211 -13 
C 365 0 646 0 813 0 
C 979 0 1267 0 1421 -13 
L 1421 153 
C 1011 153 986 178 986 428 
L 986 1658 
C 986 2247 1344 2688 1792 2688 
C 2266 2688 2317 2266 2317 1958 
L 2317 428 
C 2317 184 2291 153 1882 153 
L 1882 -13 
C 2035 0 2317 0 2483 0 
C 2650 0 2938 0 3091 -13 
L 3091 153 
C 2682 153 2656 178 2656 428 
L 2656 1658 
C 2656 2247 3014 2688 3462 2688 
C 3936 2688 3987 2266 3987 1958 
L 3987 428 
C 3987 184 3962 153 3552 153 
L 3552 -13 
C 3706 0 3987 0 4154 0 
C 4320 0 4608 0 4762 -13 
L 4762 153 
C 4352 153 4326 178 4326 428 
L 4326 1933 
z
" transform="scale(0.015625)"/>
      </defs>
      <use xlink:href="#CMMI12-74" transform="scale(0.996264)"/>
      <use xlink:href="#CMR17-3d" transform="translate(62.900339 0) scale(0.996264)"/>
      <use xlink:href="#CMMI12-61" transform="translate(162.289136 0) scale(0.996264)"/>
      <use xlink:href="#CMMI12-3d" transform="translate(213.496994 0) scale(0.996264)"/>
      <use xlink:href="#CMMI12-68" transform="translate(262.271912 0) scale(0.996264)"/>
      <use xlink:href="#CMR17-63" transform="translate(318.426536 -14.943915) scale(0.996264)"/>
      <use xlink:href="#CMR17-2e" transform="translate(358.912197 -14.943915) scale(0.996264)"/>
      <use xlink:href="#CMR17-6d" transform="translate(383.783255 -14.943915) scale(0.996264)"/>
      <use xlink:href="#CMR17-2e" transform="translate(460.702845 -14.943915) scale(0.996264)"/>
     </g>
    </g>
   </g>
   <g id="matplotlib.axis_2">
    <g id="ytick_1">
     <g id="line2d_7">
      <defs>
       <path id="m639905e1e3" d="M 0 0 
L -3.5 0 
" style="stroke: #000000; stroke-width: 0.8"/>
      </defs>
      <g>
       <use xlink:href="#m639905e1e3" x="57.6" y="307.584" style="stroke: #000000; stroke-width: 0.8"/>
      </g>
     </g>
     <g id="text_8">
      <!-- $\mathdefault{0.0}$ -->
      <g transform="translate(35.642358 311.73509) scale(0.12 -0.12)">
       <use xlink:href="#CMR17-30" transform="scale(0.996264)"/>
       <use xlink:href="#CMMI12-3a" transform="translate(45.690477 0) scale(0.996264)"/>
       <use xlink:href="#CMR17-30" transform="translate(72.787654 0) scale(0.996264)"/>
      </g>
     </g>
    </g>
    <g id="ytick_2">
     <g id="line2d_8">
      <g>
       <use xlink:href="#m639905e1e3" x="57.6" y="254.3616" style="stroke: #000000; stroke-width: 0.8"/>
      </g>
     </g>
     <g id="text_9">
      <!-- $\mathdefault{0.2}$ -->
      <g transform="translate(35.642358 258.51269) scale(0.12 -0.12)">
       <use xlink:href="#CMR17-30" transform="scale(0.996264)"/>
       <use xlink:href="#CMMI12-3a" transform="translate(45.690477 0) scale(0.996264)"/>
       <use xlink:href="#CMR17-32" transform="translate(72.787654 0) scale(0.996264)"/>
      </g>
     </g>
    </g>
    <g id="ytick_3">
     <g id="line2d_9">
      <g>
       <use xlink:href="#m639905e1e3" x="57.6" y="201.1392" style="stroke: #000000; stroke-width: 0.8"/>
      </g>
     </g>
     <g id="text_10">
      <!-- $\mathdefault{0.4}$ -->
      <g transform="translate(35.642358 205.29029) scale(0.12 -0.12)">
       <use xlink:href="#CMR17-30" transform="scale(0.996264)"/>
       <use xlink:href="#CMMI12-3a" transform="translate(45.690477 0) scale(0.996264)"/>
       <use xlink:href="#CMR17-34" transform="translate(72.787654 0) scale(0.996264)"/>
      </g>
     </g>
    </g>
    <g id="ytick_4">
     <g id="line2d_10">
      <g>
       <use xlink:href="#m639905e1e3" x="57.6" y="147.9168" style="stroke: #000000; stroke-width: 0.8"/>
      </g>
     </g>
     <g id="text_11">
      <!-- $\mathdefault{0.6}$ -->
      <g transform="translate(35.642358 152.06789) scale(0.12 -0.12)">
       <use xlink:href="#CMR17-30" transform="scale(0.996264)"/>
       <use xlink:href="#CMMI12-3a" transform="translate(45.690477 0) scale(0.996264)"/>
       <use xlink:href="#CMR17-36" transform="translate(72.787654 0) scale(0.996264)"/>
      </g>
     </g>
    </g>
    <g id="ytick_5">
     <g id="line2d_11">
      <g>
       <use xlink:href="#m639905e1e3" x="57.6" y="94.6944" style="stroke: #000000; stroke-width: 0.8"/>
      </g>
     </g>
     <g id="text_12">
      <!-- $\mathdefault{0.8}$ -->
      <g transform="translate(35.642358 98.84549) scale(0.12 -0.12)">
       <use xlink:href="#CMR17-30" transform="scale(0.996264)"/>
       <use xlink:href="#CMMI12-3a" transform="translate(45.690477 0) scale(0.996264)"/>
       <use xlink:href="#CMR17-38" transform="translate(72.787654 0) scale(0.996264)"/>
      </g>
     </g>
    </g>
    <g id="ytick_6">
     <g id="line2d_12">
      <g>
       <use xlink:href="#m639905e1e3" x="57.6" y="41.472" style="stroke: #000000; stroke-width: 0.8"/>
      </g>
     </g>
     <g id="text_13">
      <!-- $\mathdefault{1.0}$ -->
      <g transform="translate(35.642358 45.62309) scale(0.12 -0.12)">
       <use xlink:href="#CMR17-31" transform="scale(0.996264)"/>
       <use xlink:href="#CMMI12-3a" transform="translate(45.690477 0) scale(0.996264)"/>
       <use xlink:href="#CMR17-30" transform="translate(72.787654 0) scale(0.996264)"/>
      </g>
     </g>
    </g>
    <g id="text_14">
     <!-- Dimensionless mobility -->
     <g transform="translate(28.93033 238.812545) rotate(-90) scale(0.14 -0.14)">
      <defs>
       <path id="CMSS17-44" d="M 570 4416 
L 570 0 
L 2144 0 
C 3194 0 4000 980 4000 2170 
C 4000 3398 3194 4416 2144 4416 
L 570 4416 
z
M 1094 357 
L 1094 4059 
L 2003 4059 
C 2861 4059 3475 3277 3475 2170 
C 3475 1107 2867 357 2003 357 
L 1094 357 
z
" transform="scale(0.015625)"/>
       <path id="CMSS17-69" d="M 979 4183 
L 442 4183 
L 442 3648 
L 979 3648 
L 979 4183 
z
M 947 2739 
L 474 2739 
L 474 0 
L 947 0 
L 947 2739 
z
" transform="scale(0.015625)"/>
       <path id="CMSS17-6d" d="M 4288 1877 
C 4288 2308 4179 2816 3462 2816 
C 2982 2816 2694 2516 2566 2331 
C 2451 2670 2182 2816 1798 2816 
C 1363 2816 1088 2568 941 2389 
L 941 2758 
L 474 2758 
L 474 0 
L 960 0 
L 960 1559 
C 960 1939 1101 2428 1555 2428 
C 2138 2428 2138 2016 2138 1829 
L 2138 0 
L 2624 0 
L 2624 1559 
C 2624 1939 2765 2428 3219 2428 
C 3802 2428 3802 2016 3802 1829 
L 3802 0 
L 4288 0 
L 4288 1877 
z
" transform="scale(0.015625)"/>
       <path id="CMSS17-65" d="M 2502 1377 
C 2502 1590 2490 2003 2285 2345 
C 2061 2713 1696 2816 1421 2816 
C 755 2816 192 2188 192 1375 
C 192 582 774 -64 1510 -64 
C 1798 -64 2150 19 2470 248 
C 2470 274 2458 414 2451 420 
C 2451 433 2432 630 2432 656 
C 2125 407 1773 325 1517 325 
C 1107 325 666 667 646 1377 
L 2502 1377 
z
M 698 1728 
C 781 2084 1062 2421 1421 2421 
C 1517 2421 1965 2421 2080 1728 
L 698 1728 
z
" transform="scale(0.015625)"/>
       <path id="CMSS17-6e" d="M 2618 1877 
C 2618 2283 2522 2816 1798 2816 
C 1389 2816 1120 2606 941 2389 
L 941 2758 
L 474 2758 
L 474 0 
L 960 0 
L 960 1559 
C 960 1964 1114 2428 1549 2428 
C 2112 2428 2131 2048 2131 1829 
L 2131 0 
L 2618 0 
L 2618 1877 
z
" transform="scale(0.015625)"/>
       <path id="CMSS17-73" d="M 2061 2627 
C 1683 2807 1389 2807 1197 2807 
C 742 2807 198 2648 198 2003 
C 198 1359 902 1218 1094 1179 
C 1389 1122 1715 1058 1715 740 
C 1715 337 1254 337 1171 337 
C 915 337 563 407 243 638 
L 166 210 
C 531 0 883 -64 1178 -64 
C 1965 -64 2163 416 2163 781 
C 2163 1094 1984 1305 1862 1401 
C 1651 1568 1574 1587 1050 1696 
C 960 1709 646 1779 646 2066 
C 646 2432 1050 2432 1139 2432 
C 1555 2432 1811 2303 1984 2208 
L 2061 2627 
z
" transform="scale(0.015625)"/>
       <path id="CMSS17-6f" d="M 2829 1356 
C 2829 2176 2221 2816 1504 2816 
C 768 2816 173 2157 173 1356 
C 173 544 787 -64 1498 -64 
C 2227 -64 2829 563 2829 1356 
z
M 1504 337 
C 1050 337 659 709 659 1408 
C 659 2151 1114 2427 1498 2427 
C 1914 2427 2342 2126 2342 1408 
C 2342 683 1926 337 1504 337 
z
" transform="scale(0.015625)"/>
       <path id="CMSS17-6c" d="M 947 4416 
L 474 4416 
L 474 0 
L 947 0 
L 947 4416 
z
" transform="scale(0.015625)"/>
       <path id="CMSS17-62" d="M 954 4416 
L 480 4416 
L 480 -13 
L 966 -13 
L 966 274 
C 1210 38 1504 -64 1766 -64 
C 2381 -64 2880 549 2880 1352 
C 2880 2086 2496 2756 1926 2756 
C 1523 2756 1165 2591 954 2419 
L 954 4416 
z
M 966 2046 
C 1107 2222 1306 2368 1587 2368 
C 1965 2368 2394 2097 2394 1352 
C 2394 558 1882 325 1530 325 
C 1402 325 1267 356 1139 464 
C 966 615 966 709 966 797 
L 966 2046 
z
" transform="scale(0.015625)"/>
       <path id="CMSS17-74" d="M 1069 2368 
L 1901 2368 
L 1901 2737 
L 1069 2737 
L 1069 3520 
L 614 3520 
L 614 2737 
L 109 2737 
L 109 2368 
L 602 2368 
L 602 749 
C 602 384 685 -64 1107 -64 
C 1427 -64 1722 25 2003 172 
L 1901 548 
C 1747 414 1562 337 1363 337 
C 1082 337 1069 696 1069 856 
L 1069 2368 
z
" transform="scale(0.015625)"/>
       <path id="CMSS17-79" d="M 2675 2752 
L 2176 2752 
C 1632 1294 1446 702 1434 383 
L 1427 383 
C 1408 696 1126 1460 902 2007 
L 602 2752 
L 83 2752 
L 1216 13 
C 1146 -178 1043 -465 1011 -529 
C 870 -885 774 -885 672 -885 
C 646 -885 442 -885 211 -809 
L 250 -1229 
C 410 -1261 570 -1280 685 -1280 
C 845 -1280 1165 -1280 1459 -497 
L 2675 2752 
z
" transform="scale(0.015625)"/>
      </defs>
      <use xlink:href="#CMSS17-44" transform="scale(0.996264)"/>
      <use xlink:href="#CMSS17-69" transform="translate(67.542842 0) scale(0.996264)"/>
      <use xlink:href="#CMSS17-6d" transform="translate(89.723565 0) scale(0.996264)"/>
      <use xlink:href="#CMSS17-65" transform="translate(163.952819 0) scale(0.996264)"/>
      <use xlink:href="#CMSS17-6e" transform="translate(205.591641 0) scale(0.996264)"/>
      <use xlink:href="#CMSS17-73" transform="translate(253.796584 0) scale(0.996264)"/>
      <use xlink:href="#CMSS17-69" transform="translate(289.710126 0) scale(0.996264)"/>
      <use xlink:href="#CMSS17-6f" transform="translate(311.890849 0) scale(0.996264)"/>
      <use xlink:href="#CMSS17-6e" transform="translate(358.734473 0) scale(0.996264)"/>
      <use xlink:href="#CMSS17-6c" transform="translate(406.939416 0) scale(0.996264)"/>
      <use xlink:href="#CMSS17-65" transform="translate(429.120139 0) scale(0.996264)"/>
      <use xlink:href="#CMSS17-73" transform="translate(470.758961 0) scale(0.996264)"/>
      <use xlink:href="#CMSS17-73" transform="translate(506.672503 0) scale(0.996264)"/>
      <use xlink:href="#CMSS17-6d" transform="translate(573.815158 0) scale(0.996264)"/>
      <use xlink:href="#CMSS17-6f" transform="translate(648.044412 0) scale(0.996264)"/>
      <use xlink:href="#CMSS17-62" transform="translate(694.888036 0) scale(0.996264)"/>
      <use xlink:href="#CMSS17-69" transform="translate(743.092979 0) scale(0.996264)"/>
      <use xlink:href="#CMSS17-6c" transform="translate(765.273702 0) scale(0.996264)"/>
      <use xlink:href="#CMSS17-69" transform="translate(787.454425 0) scale(0.996264)"/>
      <use xlink:href="#CMSS17-74" transform="translate(809.635148 0) scale(0.996264)"/>
      <use xlink:href="#CMSS17-79" transform="translate(840.864261 0) scale(0.996264)"/>
     </g>
    </g>
   </g>
   <g id="line2d_13">
    <path d="M 57.6 41.472 
L 107.5968 41.563277 
L 136.1664 41.826213 
L 161.1648 42.283439 
L 182.592 42.898942 
L 200.448 43.603118 
L 218.304 44.509021 
L 236.16 45.643946 
L 254.016 47.03717 
L 268.3008 48.359481 
L 282.5856 49.886985 
L 296.8704 51.642151 
L 311.1552 53.652532 
L 321.8688 55.348691 
L 332.5824 57.227317 
L 343.296 59.313333 
L 354.0096 61.640293 
L 364.7232 64.255603 
L 371.8656 66.193067 
L 381.282854 69.044723 
L 387.882432 71.298698 
L 393.692774 73.513231 
L 398.73888 75.669148 
L 403.049318 77.746653 
L 406.65623 79.725227 
L 409.588186 81.579077 
L 411.873754 83.277289 
L 413.527219 84.76963 
L 414.527155 85.948745 
L 414.716429 86.271856 
L 414.716429 86.271856 
" clip-path="url(#pf4baedfa2b)" style="fill: none; stroke: #66cdaa; stroke-width: 4; stroke-linecap: square"/>
   </g>
   <g id="line2d_14">
    <path d="M 57.6 41.472 
L 93.312 71.290719 
L 114.7392 88.919607 
L 136.1664 106.244681 
L 154.0224 120.416043 
L 171.8784 134.332421 
L 189.7344 147.993057 
L 207.5904 161.40557 
L 229.0176 177.193166 
L 250.4448 192.677293 
L 271.872 207.899215 
L 296.8704 225.391399 
L 329.0112 247.599968 
L 382.622054 284.618141 
L 400.995878 297.59828 
L 413.79863 306.899486 
L 414.716429 307.581339 
L 414.716429 307.581339 
" clip-path="url(#pf4baedfa2b)" style="fill: none; stroke: #66cdaa; stroke-width: 4; stroke-linecap: square"/>
   </g>
   <g id="line2d_15">
    <path d="M 57.6 41.472 
L 96.8832 41.582714 
L 118.3104 41.880943 
L 136.1664 42.359273 
L 150.4512 42.938514 
L 164.736 43.728966 
L 179.0208 44.765471 
L 189.7344 45.72616 
L 200.448 46.861851 
L 211.1616 48.189581 
L 221.8752 49.72751 
L 232.5888 51.49523 
L 243.3024 53.514153 
L 254.016 55.808025 
L 264.7296 58.403595 
L 271.872 60.316532 
L 279.0144 62.387371 
L 286.1568 64.627623 
L 293.2992 67.050282 
L 300.4416 69.670171 
L 307.584 72.504375 
L 314.7264 75.572826 
L 321.8688 78.899078 
L 329.0112 82.511361 
L 336.1536 86.444065 
L 343.296 90.739864 
L 350.4384 95.452864 
L 357.5808 100.653455 
L 361.152 103.464875 
L 364.7232 106.436129 
L 368.2944 109.584964 
L 371.8656 112.932829 
L 375.4368 116.50604 
L 381.379277 123.044276 
L 384.893338 127.331693 
L 388.182413 131.69412 
L 391.253645 136.135748 
L 394.114176 140.662911 
L 396.767578 145.278202 
L 399.217421 149.985123 
L 401.470848 154.796248 
L 403.53143 159.720204 
L 405.402739 164.768094 
L 407.091917 169.965968 
L 408.598963 175.324224 
L 409.931021 180.884498 
L 411.091661 186.690449 
L 412.080883 192.780283 
L 412.90583 199.258595 
L 413.570074 206.263596 
L 414.073613 213.958656 
L 414.427162 222.84386 
L 414.637862 234.073294 
L 414.712858 248.991091 
L 414.716429 252.178892 
L 414.716429 252.178892 
" clip-path="url(#pf4baedfa2b)" style="fill: none; stroke: #66cdaa; stroke-width: 4; stroke-linecap: square"/>
   </g>
   <g id="line2d_16">
    <path d="M 57.6 41.472 
L 114.7392 65.31748 
L 157.5936 82.951566 
L 243.3024 118.102918 
L 264.7296 127.157622 
L 282.5856 134.916545 
L 296.8704 141.32419 
L 311.1552 147.974382 
L 321.8688 153.169741 
L 332.5824 158.594647 
L 343.296 164.313493 
L 350.4384 168.332984 
L 357.5808 172.56027 
L 364.7232 177.045882 
L 371.8656 181.860971 
L 379.200845 187.26024 
L 383.896973 191.038234 
L 388.103846 194.704303 
L 391.86432 198.272488 
L 395.221248 201.760497 
L 398.210342 205.18316 
L 400.867315 208.560251 
L 403.217165 211.903164 
L 405.288461 215.233082 
L 407.106202 218.573797 
L 408.688243 221.944216 
L 410.056013 225.380782 
L 411.223795 228.918037 
L 412.202304 232.593759 
L 413.005824 236.482386 
L 413.645069 240.691626 
L 414.127181 245.384459 
L 414.459302 250.871861 
L 414.648576 257.786791 
L 414.716429 268.72737 
L 414.716429 268.72737 
" clip-path="url(#pf4baedfa2b)" style="fill: none; stroke: #66cdaa; stroke-width: 4; stroke-linecap: square"/>
   </g>
   <g id="line2d_17">
    <path d="M 57.6 307.584 
L 146.88 307.483175 
L 186.1632 307.198493 
L 218.304 306.728515 
L 246.8736 306.06887 
L 271.872 305.263635 
L 293.2992 304.375772 
L 314.7264 303.278421 
L 336.1536 301.939382 
L 354.0096 300.607249 
L 371.8656 299.038626 
L 388.657382 297.296666 
L 402.910042 295.578758 
L 411.498778 294.602482 
L 413.216525 294.613538 
L 413.97719 294.817558 
L 414.36288 295.139228 
L 414.577152 295.619196 
L 414.687859 296.450783 
L 414.716429 297.606714 
L 414.716429 297.606714 
" clip-path="url(#pf4baedfa2b)" style="fill: none; stroke: #66cdaa; stroke-width: 4; stroke-linecap: square"/>
   </g>
   <g id="line2d_18">
    <path d="M 414.648578 307.530797 
L 404.251125 299.935752 
L 389.434221 289.396255 
L 368.625945 274.885576 
L 329.753628 248.110963 
L 291.592919 221.71866 
L 265.687631 203.530079 
L 243.19401 187.469159 
L 222.30805 172.283941 
L 202.641018 157.711999 
L 183.603809 143.331388 
L 164.901243 128.925264 
L 146.210986 114.24751 
L 127.075895 98.935281 
L 106.856572 82.466158 
L 83.920367 63.487446 
L 59.376732 42.961429 
L 59.376732 42.961429 
" clip-path="url(#pf4baedfa2b)" style="fill: none; stroke-dasharray: 1.5,15; stroke-dashoffset: 0; stroke: #000000; stroke-width: 1.5"/>
   </g>
   <g id="line2d_19">
    <path d="M 414.648578 257.78588 
L 413.936049 243.264397 
L 413.226357 237.777062 
L 412.519487 234.001689 
L 411.114144 228.551787 
L 409.719886 224.47655 
L 408.336583 221.146227 
L 406.281887 216.998857 
L 404.251125 213.510872 
L 402.24388 210.469336 
L 399.603437 206.907014 
L 397.003145 203.758152 
L 393.80786 200.251058 
L 390.052047 196.513241 
L 386.37922 193.164266 
L 382.195518 189.635124 
L 377.542653 185.991617 
L 372.465094 182.283276 
L 366.473888 178.192583 
L 360.192772 174.167827 
L 353.180194 169.929129 
L 345.08993 165.306108 
L 336.121284 160.447701 
L 326.0709 155.267325 
L 314.853992 149.745544 
L 302.169232 143.759058 
L 287.673439 137.175199 
L 270.907844 129.815959 
L 251.035161 121.345206 
L 225.71976 110.809233 
L 185.4076 94.307336 
L 122.552166 68.549688 
L 78.884762 50.387131 
L 59.376732 42.216715 
L 59.376732 42.216715 
" clip-path="url(#pf4baedfa2b)" style="fill: none; stroke-dasharray: 1.5,2.475; stroke-dashoffset: 0; stroke: #000000; stroke-width: 1.5"/>
   </g>
   <g id="line2d_20">
    <path d="M 414.648578 86.063186 
L 413.936049 85.136356 
L 412.519487 83.764695 
L 410.415638 82.116325 
L 407.648999 80.290629 
L 404.251125 78.355143 
L 400.259747 76.359078 
L 395.71777 74.339746 
L 390.052047 72.092273 
L 383.975424 69.932673 
L 376.970407 67.690755 
L 369.168653 65.440603 
L 360.706425 63.237285 
L 351.235907 61.012391 
L 340.983582 58.844031 
L 330.169067 56.787064 
L 318.614465 54.81517 
L 306.25617 52.932326 
L 293.136204 51.159937 
L 279.386109 49.525945 
L 264.72214 48.009755 
L 249.373168 46.648328 
L 233.157956 45.435914 
L 216.024272 44.381206 
L 197.856066 43.489026 
L 178.403733 42.760155 
L 157.292925 42.195775 
L 133.806734 41.795255 
L 106.292427 41.556329 
L 68.864123 41.473055 
L 59.376732 41.472015 
L 59.376732 41.472015 
" clip-path="url(#pf4baedfa2b)" style="fill: none; stroke-dasharray: 5.55,2.4; stroke-dashoffset: 0; stroke: #000000; stroke-width: 1.5"/>
   </g>
   <g id="line2d_21">
    <path d="M 414.648578 235.139333 
L 413.936049 211.526734 
L 413.226357 202.373073 
L 412.519487 196.02874 
L 411.114144 186.835023 
L 409.719886 179.95708 
L 408.336583 174.349915 
L 406.964105 169.565143 
L 404.925412 163.436002 
L 402.910374 158.190644 
L 400.918582 153.582383 
L 398.298329 148.175337 
L 395.71777 143.409836 
L 393.176009 139.141681 
L 390.052047 134.359555 
L 386.985712 130.070899 
L 383.379957 125.447817 
L 379.852291 121.290206 
L 375.832035 116.92054 
L 371.910852 112.97969 
L 367.546181 108.911889 
L 362.778593 104.799155 
L 358.155454 101.097028 
L 353.180194 97.388033 
L 347.894253 93.722923 
L 342.339268 90.142041 
L 336.556406 86.676546 
L 330.585775 83.349677 
L 324.067685 79.979365 
L 317.47483 76.820922 
L 310.482022 73.71996 
L 303.178319 70.729817 
L 295.648255 67.889391 
L 287.673439 65.126332 
L 279.386109 62.499669 
L 270.907844 60.049315 
L 262.112652 57.740153 
L 252.939675 55.564402 
L 243.387116 53.531169 
L 233.503849 51.657526 
L 223.224708 49.937092 
L 212.452135 48.363317 
L 201.240896 46.953307 
L 189.466183 45.700031 
L 177.110072 44.611269 
L 164.006053 43.6829 
L 150.017576 42.917984 
L 134.861909 42.315711 
L 118.085756 41.876405 
L 98.732432 41.59909 
L 73.88885 41.47988 
L 59.376732 41.471999 
L 59.376732 41.471999 
" clip-path="url(#pf4baedfa2b)" style="fill: none; stroke-dasharray: 9.6,2.4,1.5,2.4; stroke-dashoffset: 0; stroke: #000000; stroke-width: 1.5"/>
   </g>
   <g id="line2d_22">
    <path d="M 414.648578 296.003171 
L 413.936049 294.794613 
L 413.226357 294.611306 
L 411.815422 294.582283 
L 409.026873 294.822465 
L 398.949636 296.07223 
L 384.573072 297.744801 
L 369.713258 299.240374 
L 353.180194 300.673266 
L 335.255101 302.000606 
L 315.597393 303.228851 
L 294.385567 304.325388 
L 271.932009 305.261411 
L 247.739492 306.04476 
L 221.551884 306.666036 
L 192.760092 307.122255 
L 159.570189 307.418801 
L 116.999221 307.562426 
L 59.376732 307.584 
L 59.376732 307.584 
" clip-path="url(#pf4baedfa2b)" style="fill: none; stroke: #000000; stroke-width: 1.5; stroke-linecap: square"/>
   </g>
   <g id="patch_3">
    <path d="M 57.6 307.584 
L 57.6 41.472 
" style="fill: none; stroke: #000000; stroke-width: 0.8; stroke-linejoin: miter; stroke-linecap: square"/>
   </g>
   <g id="patch_4">
    <path d="M 414.72 307.584 
L 414.72 41.472 
" style="fill: none; stroke: #000000; stroke-width: 0.8; stroke-linejoin: miter; stroke-linecap: square"/>
   </g>
   <g id="patch_5">
    <path d="M 57.6 307.584 
L 414.72 307.584 
" style="fill: none; stroke: #000000; stroke-width: 0.8; stroke-linejoin: miter; stroke-linecap: square"/>
   </g>
   <g id="patch_6">
    <path d="M 57.6 41.472 
L 414.72 41.472 
" style="fill: none; stroke: #000000; stroke-width: 0.8; stroke-linejoin: miter; stroke-linecap: square"/>
   </g>
   <g id="legend_1">
    <g id="patch_7">
     <path d="M 77.856 294.2784 
L 172.537346 294.2784 
Q 174.937346 294.2784 174.937346 291.8784 
L 174.937346 177.759695 
Q 174.937346 175.359695 172.537346 175.359695 
L 77.856 175.359695 
Q 75.456 175.359695 75.456 177.759695 
L 75.456 291.8784 
Q 75.456 294.2784 77.856 294.2784 
z
" style="fill: #ffffff; opacity: 0.8; stroke: #cccccc; stroke-linejoin: miter"/>
    </g>
    <g id="line2d_23">
     <path d="M 80.256 184.760037 
L 92.256 184.760037 
L 104.256 184.760037 
" style="fill: none; stroke: #66cdaa; stroke-width: 4; stroke-linecap: square"/>
    </g>
    <g id="text_15">
     <!-- Numer. $\bm{\widetilde{\mu}}$ -->
     <g transform="translate(113.856 188.960037) scale(0.12 -0.12)">
      <defs>
       <path id="CMSS17-4e" d="M 1466 4180 
L 1350 4416 
L 563 4416 
L 563 0 
L 1062 0 
L 1062 3926 
L 1069 3932 
C 1114 3817 1139 3760 1402 3194 
L 2771 236 
L 2886 0 
L 3674 0 
L 3674 4416 
L 3174 4416 
L 3174 490 
L 3168 483 
C 3123 598 3098 655 2835 1221 
L 1466 4180 
z
" transform="scale(0.015625)"/>
       <path id="CMSS17-75" d="M 2618 2739 
L 2131 2739 
L 2131 972 
C 2131 498 1786 306 1421 306 
C 998 306 960 447 960 709 
L 960 2739 
L 474 2739 
L 474 678 
C 474 179 646 -64 1088 -64 
C 1306 -64 1798 -13 2144 306 
L 2144 0 
L 2618 0 
L 2618 2739 
z
" transform="scale(0.015625)"/>
       <path id="CMSS17-72" d="M 954 1363 
C 954 1965 1395 2368 1958 2368 
L 1958 2789 
C 1549 2789 1165 2585 934 2253 
L 934 2758 
L 480 2758 
L 480 0 
L 954 0 
L 954 1363 
z
" transform="scale(0.015625)"/>
       <path id="CMSS17-2e" d="M 1088 510 
L 576 510 
L 576 0 
L 1088 0 
L 1088 510 
z
" transform="scale(0.015625)"/>
       <path id="CMEX10-65" d="M 3462 4621 
C 3149 4358 2810 4166 2483 4166 
C 2227 4166 2042 4275 1818 4403 
C 1632 4512 1434 4621 1178 4621 
C 1018 4621 851 4570 710 4506 
C 582 4442 454 4371 346 4282 
L 0 4000 
L 90 3891 
C 403 4154 742 4346 1069 4346 
C 1325 4346 1510 4237 1734 4109 
C 1920 4000 2118 3891 2374 3891 
C 2534 3891 2701 3942 2842 4006 
C 2970 4070 3098 4141 3206 4230 
L 3552 4512 
L 3462 4621 
z
" transform="scale(0.015625)"/>
       <path id="CMMIB10-16" d="M 1760 2089 
C 1798 2253 1869 2526 1869 2569 
C 1869 2703 1766 2848 1568 2848 
C 1235 2848 1152 2532 1133 2456 
L 282 -901 
C 256 -1002 256 -1040 256 -1066 
C 256 -1267 422 -1344 557 -1344 
C 678 -1344 851 -1275 941 -1098 
C 979 -1022 1190 -157 1235 38 
C 1498 -64 1786 -64 1869 -64 
C 2086 -64 2381 -26 2765 319 
C 2918 25 3277 -64 3514 -64 
C 3750 -64 3936 71 4070 301 
C 4230 557 4314 902 4314 934 
C 4314 1024 4218 1024 4160 1024 
C 4090 1024 4064 1024 4032 992 
C 4019 979 4019 967 3981 806 
C 3853 293 3706 165 3546 165 
C 3475 165 3398 190 3398 401 
C 3398 509 3424 611 3488 866 
L 3654 1516 
C 3686 1656 3750 1917 3795 2089 
C 3834 2236 3898 2491 3898 2535 
C 3898 2670 3795 2816 3597 2816 
C 3469 2816 3245 2740 3174 2478 
L 2733 713 
C 2707 598 2598 490 2483 395 
C 2278 222 2086 165 1914 165 
C 1478 165 1440 475 1440 665 
C 1440 836 1478 988 1504 1101 
L 1760 2089 
z
" transform="scale(0.015625)"/>
      </defs>
      <use xlink:href="#CMSS17-4e" transform="scale(0.996264)"/>
      <use xlink:href="#CMSS17-75" transform="translate(66.061519 0) scale(0.996264)"/>
      <use xlink:href="#CMSS17-6d" transform="translate(114.266462 0) scale(0.996264)"/>
      <use xlink:href="#CMSS17-65" transform="translate(188.495717 0) scale(0.996264)"/>
      <use xlink:href="#CMSS17-72" transform="translate(230.134539 0) scale(0.996264)"/>
      <use xlink:href="#CMSS17-2e" transform="translate(262.044311 0) scale(0.996264)"/>
      <use xlink:href="#CMEX10-65" transform="translate(340.476935 1.383742) scale(0.996264)"/>
      <use xlink:href="#CMMIB10-16" transform="translate(329.707323 0) scale(0.996264)"/>
     </g>
    </g>
    <g id="line2d_24">
     <path d="M 80.256 204.776476 
L 92.256 204.776476 
L 104.256 204.776476 
" style="fill: none; stroke-dasharray: 1.5,15; stroke-dashoffset: 0; stroke: #000000; stroke-width: 1.5"/>
    </g>
    <g id="text_16">
     <!-- Analyt. $\widetilde{\mu}^{\textrm{t}}_z$ -->
     <g transform="translate(113.856 208.976476) scale(0.12 -0.12)">
      <defs>
       <path id="CMSS17-41" d="M 2272 4416 
L 1722 4416 
L 166 0 
L 653 0 
L 1101 1280 
L 2816 1280 
L 3270 0 
L 3827 0 
L 2272 4416 
z
M 2694 1637 
L 1222 1637 
C 1530 2528 1914 3638 1958 3925 
L 1965 3925 
C 2010 3663 2138 3281 2246 2956 
L 2694 1637 
z
" transform="scale(0.015625)"/>
       <path id="CMSS17-61" d="M 2406 1791 
C 2406 2392 1978 2808 1402 2808 
C 1120 2808 813 2757 461 2553 
L 499 2135 
C 659 2248 934 2432 1395 2432 
C 1722 2432 1920 2180 1920 1782 
L 1920 1536 
C 896 1536 256 1238 256 726 
C 256 461 416 -64 947 -64 
C 1043 -64 1562 -64 1933 217 
L 1933 -19 
L 2406 -19 
L 2406 1791 
z
M 1920 816 
C 1920 701 1920 548 1728 434 
C 1562 325 1350 325 1261 325 
C 941 325 723 511 723 744 
C 723 1211 1722 1211 1920 1211 
L 1920 816 
z
" transform="scale(0.015625)"/>
       <path id="CMMI12-16" d="M 922 140 
C 1082 -6 1318 -64 1536 -64 
C 1946 -64 2227 208 2374 405 
C 2438 69 2707 -64 2931 -64 
C 3123 -64 3277 50 3392 277 
C 3494 493 3584 879 3584 903 
C 3584 935 3558 960 3520 960 
C 3462 960 3456 928 3430 834 
C 3334 461 3213 64 2950 64 
C 2765 64 2752 229 2752 358 
C 2752 504 2810 735 2854 926 
L 3034 1615 
C 3059 1737 3130 2023 3162 2139 
C 3200 2292 3270 2567 3270 2592 
C 3270 2688 3194 2752 3098 2752 
C 3040 2752 2906 2726 2854 2535 
L 2406 760 
C 2374 632 2374 619 2291 517 
C 2214 409 1965 64 1562 64 
C 1203 64 1088 326 1088 625 
C 1088 811 1146 1034 1171 1143 
L 1459 2293 
C 1491 2414 1542 2618 1542 2657 
C 1542 2759 1459 2816 1376 2816 
C 1318 2816 1178 2797 1126 2592 
L 198 -1107 
C 192 -1139 179 -1177 179 -1216 
C 179 -1312 256 -1376 352 -1376 
C 538 -1376 576 -1228 621 -1050 
L 922 140 
z
" transform="scale(0.015625)"/>
       <path id="CMR17-74" d="M 966 2560 
L 1862 2560 
L 1862 2725 
L 966 2725 
L 966 3904 
L 851 3904 
C 838 3245 614 2668 70 2668 
L 70 2560 
L 627 2560 
L 627 771 
C 627 650 627 -64 1370 -64 
C 1747 -64 1965 306 1965 777 
L 1965 1140 
L 1850 1140 
L 1850 783 
C 1850 344 1677 51 1408 51 
C 1222 51 966 178 966 758 
L 966 2560 
z
" transform="scale(0.015625)"/>
       <path id="CMMI12-7a" d="M 813 486 
C 1088 803 1312 1004 1632 1296 
C 2016 1632 2182 1793 2272 1891 
C 2720 2338 2944 2713 2944 2764 
C 2944 2816 2893 2816 2880 2816 
C 2835 2816 2822 2793 2790 2750 
C 2630 2494 2477 2367 2310 2367 
C 2176 2367 2106 2421 1984 2565 
C 1850 2715 1741 2816 1555 2816 
C 1088 2816 806 2257 806 2128 
C 806 2108 813 2068 870 2068 
C 922 2068 928 2091 947 2133 
C 1056 2372 1363 2414 1485 2414 
C 1619 2414 1747 2376 1882 2327 
C 2125 2240 2227 2240 2291 2240 
C 2336 2240 2362 2240 2394 2246 
C 2182 1994 1837 1683 1549 1418 
L 902 816 
C 512 415 275 33 275 -12 
C 275 -51 307 -64 346 -64 
C 384 -64 390 -57 435 14 
C 538 163 742 384 979 384 
C 1114 384 1178 342 1306 193 
C 1427 61 1536 -64 1741 -64 
C 2368 -64 2726 732 2726 876 
C 2726 903 2720 942 2656 942 
C 2605 942 2598 917 2579 855 
C 2438 488 2061 338 1811 338 
C 1677 338 1549 376 1414 425 
C 1158 512 1088 512 1005 512 
C 941 512 870 512 813 486 
z
" transform="scale(0.015625)"/>
      </defs>
      <use xlink:href="#CMSS17-41" transform="scale(0.996264)"/>
      <use xlink:href="#CMSS17-6e" transform="translate(62.217855 0) scale(0.996264)"/>
      <use xlink:href="#CMSS17-61" transform="translate(110.422798 0) scale(0.996264)"/>
      <use xlink:href="#CMSS17-6c" transform="translate(155.344719 0) scale(0.996264)"/>
      <use xlink:href="#CMSS17-79" transform="translate(177.525442 0) scale(0.996264)"/>
      <use xlink:href="#CMSS17-74" transform="translate(220.525583 0) scale(0.996264)"/>
      <use xlink:href="#CMSS17-2e" transform="translate(254.35715 0) scale(0.996264)"/>
      <use xlink:href="#CMEX10-65" transform="translate(326.401513 0.000091) scale(0.996264)"/>
      <use xlink:href="#CMMI12-16" transform="translate(322.020162 0) scale(0.996264)"/>
      <use xlink:href="#CMR17-74" transform="translate(380.711583 36.153639) scale(0.996264)"/>
      <use xlink:href="#CMMI12-7a" transform="translate(380.711583 -24.62935) scale(0.697382)"/>
     </g>
    </g>
    <g id="line2d_25">
     <path d="M 80.256 225.423819 
L 92.256 225.423819 
L 104.256 225.423819 
" style="fill: none; stroke-dasharray: 1.5,2.475; stroke-dashoffset: 0; stroke: #000000; stroke-width: 1.5"/>
    </g>
    <g id="text_17">
     <!-- Analyt. $\widetilde{\mu}^{\textrm{t}}_x$ -->
     <g transform="translate(113.856 229.623819) scale(0.12 -0.12)">
      <defs>
       <path id="CMMI12-78" d="M 3034 2606 
C 2829 2567 2752 2414 2752 2293 
C 2752 2139 2874 2088 2963 2088 
C 3155 2088 3290 2254 3290 2427 
C 3290 2695 2982 2816 2714 2816 
C 2323 2816 2106 2433 2048 2312 
C 1901 2816 1504 2816 1389 2816 
C 736 2816 390 1980 390 1839 
C 390 1814 416 1782 461 1782 
C 512 1782 525 1820 538 1846 
C 755 2555 1184 2689 1370 2689 
C 1658 2689 1715 2420 1715 2267 
C 1715 2127 1677 1980 1600 1673 
L 1382 798 
C 1286 415 1101 64 762 64 
C 730 64 570 64 435 147 
C 666 192 717 383 717 460 
C 717 588 621 664 499 664 
C 346 664 179 530 179 326 
C 179 57 480 -64 755 -64 
C 1062 -64 1280 179 1414 441 
C 1517 64 1837 -64 2074 -64 
C 2726 -64 3072 773 3072 913 
C 3072 945 3046 971 3008 971 
C 2950 971 2944 939 2925 888 
C 2752 326 2381 64 2093 64 
C 1869 64 1747 230 1747 492 
C 1747 632 1773 734 1875 1156 
L 2099 2024 
C 2195 2408 2413 2689 2707 2689 
C 2720 2689 2899 2689 3034 2606 
z
" transform="scale(0.015625)"/>
      </defs>
      <use xlink:href="#CMSS17-41" transform="scale(0.996264)"/>
      <use xlink:href="#CMSS17-6e" transform="translate(62.217855 0) scale(0.996264)"/>
      <use xlink:href="#CMSS17-61" transform="translate(110.422798 0) scale(0.996264)"/>
      <use xlink:href="#CMSS17-6c" transform="translate(155.344719 0) scale(0.996264)"/>
      <use xlink:href="#CMSS17-79" transform="translate(177.525442 0) scale(0.996264)"/>
      <use xlink:href="#CMSS17-74" transform="translate(220.525583 0) scale(0.996264)"/>
      <use xlink:href="#CMSS17-2e" transform="translate(254.35715 0) scale(0.996264)"/>
      <use xlink:href="#CMEX10-65" transform="translate(326.401513 0.000091) scale(0.996264)"/>
      <use xlink:href="#CMMI12-16" transform="translate(322.020162 0) scale(0.996264)"/>
      <use xlink:href="#CMR17-74" transform="translate(380.711583 36.153639) scale(0.996264)"/>
      <use xlink:href="#CMMI12-78" transform="translate(380.711583 -24.62935) scale(0.697382)"/>
     </g>
    </g>
    <g id="line2d_26">
     <path d="M 80.256 243.86514 
L 92.256 243.86514 
L 104.256 243.86514 
" style="fill: none; stroke-dasharray: 5.55,2.4; stroke-dashoffset: 0; stroke: #000000; stroke-width: 1.5"/>
    </g>
    <g id="text_18">
     <!-- Analyt. $\widetilde{\mu}^{\textrm{r}}_z$ -->
     <g transform="translate(113.856 248.06514) scale(0.12 -0.12)">
      <defs>
       <path id="CMR17-72" d="M 960 1497 
C 960 2112 1222 2688 1702 2688 
C 1747 2688 1792 2682 1837 2662 
C 1837 2662 1696 2617 1696 2452 
C 1696 2298 1818 2234 1914 2234 
C 1990 2234 2131 2279 2131 2458 
C 2131 2663 1926 2790 1709 2790 
C 1222 2790 1011 2317 947 2093 
L 941 2093 
L 941 2790 
L 198 2720 
L 198 2554 
C 576 2554 634 2515 634 2208 
L 634 428 
C 634 184 608 153 198 153 
L 198 -13 
C 352 0 646 0 813 0 
C 998 0 1325 0 1498 -13 
L 1498 153 
C 1037 153 960 153 960 440 
L 960 1497 
z
" transform="scale(0.015625)"/>
      </defs>
      <use xlink:href="#CMSS17-41" transform="scale(0.996264)"/>
      <use xlink:href="#CMSS17-6e" transform="translate(62.217855 0) scale(0.996264)"/>
      <use xlink:href="#CMSS17-61" transform="translate(110.422798 0) scale(0.996264)"/>
      <use xlink:href="#CMSS17-6c" transform="translate(155.344719 0) scale(0.996264)"/>
      <use xlink:href="#CMSS17-79" transform="translate(177.525442 0) scale(0.996264)"/>
      <use xlink:href="#CMSS17-74" transform="translate(220.525583 0) scale(0.996264)"/>
      <use xlink:href="#CMSS17-2e" transform="translate(254.35715 0) scale(0.996264)"/>
      <use xlink:href="#CMEX10-65" transform="translate(326.401513 0.000091) scale(0.996264)"/>
      <use xlink:href="#CMMI12-16" transform="translate(322.020162 0) scale(0.996264)"/>
      <use xlink:href="#CMR17-72" transform="translate(380.711583 36.153639) scale(0.996264)"/>
      <use xlink:href="#CMMI12-7a" transform="translate(380.711583 -24.62935) scale(0.697382)"/>
     </g>
    </g>
    <g id="line2d_27">
     <path d="M 80.256 262.306461 
L 92.256 262.306461 
L 104.256 262.306461 
" style="fill: none; stroke-dasharray: 9.6,2.4,1.5,2.4; stroke-dashoffset: 0; stroke: #000000; stroke-width: 1.5"/>
    </g>
    <g id="text_19">
     <!-- Analyt. $\widetilde{\mu}^{\textrm{r}}_x$ -->
     <g transform="translate(113.856 266.506461) scale(0.12 -0.12)">
      <use xlink:href="#CMSS17-41" transform="scale(0.996264)"/>
      <use xlink:href="#CMSS17-6e" transform="translate(62.217855 0) scale(0.996264)"/>
      <use xlink:href="#CMSS17-61" transform="translate(110.422798 0) scale(0.996264)"/>
      <use xlink:href="#CMSS17-6c" transform="translate(155.344719 0) scale(0.996264)"/>
      <use xlink:href="#CMSS17-79" transform="translate(177.525442 0) scale(0.996264)"/>
      <use xlink:href="#CMSS17-74" transform="translate(220.525583 0) scale(0.996264)"/>
      <use xlink:href="#CMSS17-2e" transform="translate(254.35715 0) scale(0.996264)"/>
      <use xlink:href="#CMEX10-65" transform="translate(326.401513 0.000091) scale(0.996264)"/>
      <use xlink:href="#CMMI12-16" transform="translate(322.020162 0) scale(0.996264)"/>
      <use xlink:href="#CMR17-72" transform="translate(380.711583 36.153639) scale(0.996264)"/>
      <use xlink:href="#CMMI12-78" transform="translate(380.711583 -24.62935) scale(0.697382)"/>
     </g>
    </g>
    <g id="line2d_28">
     <path d="M 80.256 282.953804 
L 92.256 282.953804 
L 104.256 282.953804 
" style="fill: none; stroke: #000000; stroke-width: 1.5; stroke-linecap: square"/>
    </g>
    <g id="text_20">
     <!-- Analyt. $\widetilde{\mu}^{\textrm{tr}}$ -->
     <g transform="translate(113.856 287.153804) scale(0.12 -0.12)">
      <use xlink:href="#CMSS17-41" transform="scale(0.996264)"/>
      <use xlink:href="#CMSS17-6e" transform="translate(62.217855 0) scale(0.996264)"/>
      <use xlink:href="#CMSS17-61" transform="translate(110.422798 0) scale(0.996264)"/>
      <use xlink:href="#CMSS17-6c" transform="translate(155.344719 0) scale(0.996264)"/>
      <use xlink:href="#CMSS17-79" transform="translate(177.525442 0) scale(0.996264)"/>
      <use xlink:href="#CMSS17-74" transform="translate(220.525583 0) scale(0.996264)"/>
      <use xlink:href="#CMSS17-2e" transform="translate(254.35715 0) scale(0.996264)"/>
      <use xlink:href="#CMEX10-65" transform="translate(326.401513 0.000091) scale(0.996264)"/>
      <use xlink:href="#CMMI12-16" transform="translate(322.020162 0) scale(0.996264)"/>
      <use xlink:href="#CMR17-74" transform="translate(380.711583 36.153639) scale(0.996264)"/>
      <use xlink:href="#CMR17-72" transform="translate(415.992351 36.153639) scale(0.996264)"/>
     </g>
    </g>
   </g>
  </g>
 </g>
 <defs>
  <clipPath id="pf4baedfa2b">
   <rect x="57.6" y="41.472" width="357.12" height="266.112"/>
  </clipPath>
 </defs>
</svg>
